<?xml version="1.0" encoding="utf-8"?><!DOCTYPE svg PUBLIC "-//W3C//DTD SVG 1.1//EN" "http://www.w3.org/Graphics/SVG/1.1/DTD/svg11.dtd"><svg viewBox="0 0 281 60.289" xmlns="http://www.w3.org/2000/svg" xmlns:xlink="http://www.w3.org/1999/xlink"><style>:root>svg{display:none}:root>svg:target{display:block}</style><svg viewBox="0 0 19 16" id="bad-icon" xmlns="http://www.w3.org/2000/svg"><path d="M.702 0h3.264v9.602H.702V0zm17.959 8.801c0 .879-.737 1.597-1.634 1.597h-5.142l.818 3.68v.241c0 .321-.163.642-.328.88l-.9.801-5.385-5.281c-.326-.239-.49-.641-.49-1.117v-8C5.6.719 6.334 0 7.23 0h7.35c.649 0 1.224.398 1.466.961l2.451 5.68c.081.16.081.398.081.558v1.602h.083c0-.082 0 0 0 0z" fill="#D14242"/></svg><svg viewBox="0 0 64 31" id="bronse-place" xmlns="http://www.w3.org/2000/svg"><path d="M62.675 13.792c-1.324 1.835-3.465 1.892-3.465 1.892s-.744-1.839.612-3.713c1.358-1.882 3.359-2.178 3.359-2.178s.819 2.172-.506 3.999zm-3.578-2.883s-1.263-1.538-.519-3.728c.736-2.195 2.568-3.064 2.568-3.064s1.425 1.83.701 3.971c-.717 2.136-2.75 2.821-2.75 2.821zM47.648 30.18c13.428-11.973 8.638-21.651 8.425-22.055l.985-.505c.051.105 5.43 10.802-8.669 23.379l-.741-.819zm6.11-26.215C53.154 1.733 54.184 0 54.184 0s2.206.739 2.804 2.915c.59 2.179-.717 3.865-.717 3.865s-1.901-.579-2.513-2.815zm1.971 8.135s-2.138-.116-3.409-1.99c-1.263-1.866-.377-4.011-.377-4.011s1.99.354 3.294 2.274c1.3 1.911.492 3.727.492 3.727zm-3.122-.159s1.927.604 2.966 2.676c1.041 2.074.003 3.766.003 3.766s-2.105-.398-3.117-2.412c-1.01-2.019.148-4.03.148-4.03zm.526 11.172s-2.054-.588-2.873-2.692c-.817-2.107.526-4 .526-4s1.864.786 2.704 2.943c.832 2.16-.357 3.749-.357 3.749zm-3.612 4.804s-1.798-1.157-1.974-3.41c-.174-2.249 1.665-3.68 1.665-3.68s1.554 1.291 1.729 3.599c.175 2.3-1.42 3.491-1.42 3.491zm-36.462-3.491c.175-2.308 1.729-3.599 1.729-3.599s1.839 1.431 1.665 3.68c-.176 2.253-1.975 3.41-1.975 3.41s-1.595-1.191-1.419-3.491zm-2.193-1.313s-1.188-1.589-.356-3.749c.839-2.157 2.703-2.943 2.703-2.943s1.344 1.893.527 4c-.819 2.104-2.874 2.692-2.874 2.692zM8.271 12.1s-.808-1.816.491-3.727c1.305-1.92 3.295-2.274 3.295-2.274s.886 2.145-.378 4.011c-1.27 1.874-3.408 1.99-3.408 1.99zm-.542-5.32s-1.307-1.686-.718-3.865C7.61.739 9.816 0 9.816 0s1.03 1.733.425 3.965C9.63 6.201 7.729 6.78 7.729 6.78zm.698 7.837c1.039-2.072 2.966-2.676 2.966-2.676s1.158 2.011.148 4.03c-1.012 2.014-3.117 2.412-3.117 2.412s-1.038-1.692.003-3.766zm-.5-6.492c-.214.404-5.003 10.082 8.424 22.055l-.74.819C1.512 18.422 6.891 7.725 6.942 7.62l.985.505zm-5.774-.037c-.724-2.141.701-3.971.701-3.971s1.832.869 2.568 3.064c.743 2.19-.519 3.728-.519 3.728s-2.033-.685-2.75-2.821zm2.024 3.883c1.356 1.874.613 3.713.613 3.713s-2.141-.057-3.466-1.892C0 11.965.819 9.793.819 9.793s2.001.296 3.358 2.178zm.639 5.162c1.742 1.529 1.427 3.486 1.427 3.486s-2.106.419-3.809-1.077C.737 18.056 1.056 15.75 1.056 15.75s2.018-.153 3.76 1.383zm1.296 4.696c2.127.934 2.419 2.898 2.419 2.898s-1.877 1.028-3.951.121c-2.074-.913-2.472-3.202-2.472-3.202s1.87-.753 4.004.183zm3.422 4.603c2.221.678 2.748 2.586 2.748 2.586s-1.74 1.253-3.908.59c-2.166-.66-2.842-2.88-2.842-2.88s1.774-.971 4.002-.296zm44.932 0c2.228-.675 4.002.296 4.002.296s-.676 2.22-2.842 2.88c-2.168.663-3.909-.59-3.909-.59s.528-1.908 2.749-2.586zm3.291-5.813s-.315-1.957 1.427-3.486c1.742-1.536 3.76-1.383 3.76-1.383s.319 2.306-1.378 3.792c-1.703 1.496-3.809 1.077-3.809 1.077zm-2.288 4.108s.292-1.964 2.419-2.898c2.134-.936 4.004-.183 4.004-.183s-.398 2.289-2.472 3.202c-2.074.907-3.951-.121-3.951-.121z" fill="#B35C36"/></svg><svg viewBox="0 0 17 17" id="close" xmlns="http://www.w3.org/2000/svg"><path d="M10.616 8.5l5.994 5.995a.996.996 0 010 1.41l-.705.705a.996.996 0 01-1.41 0L8.5 10.616 2.505 16.61a.996.996 0 01-1.41 0l-.706-.705a.998.998 0 010-1.41L6.384 8.5.389 2.505a.998.998 0 010-1.41l.706-.706a.998.998 0 011.41 0L8.5 6.384 14.495.389a.998.998 0 011.41 0l.705.706a.996.996 0 010 1.41L10.616 8.5z" fill="#FFF" opacity=".502"/></svg><svg viewBox="0 0 10 10" id="close-white" xmlns="http://www.w3.org/2000/svg"><path d="M6.476 5l3.32 3.32a.521.521 0 010 .738l-.738.738a.521.521 0 01-.738 0L5 6.476l-3.321 3.32a.52.52 0 01-.737 0l-.738-.738a.521.521 0 010-.738L3.524 5 .204 1.679a.521.521 0 010-.738L.942.204a.52.52 0 01.737 0L5 3.524 8.32.204a.521.521 0 01.738 0l.738.737a.521.521 0 010 .738L6.476 5z" fill="#FFF"/></svg><svg viewBox="0 0 9 19" id="facebook" xmlns="http://www.w3.org/2000/svg"><path d="M9 6.377H6V4.749c0-.792.245-1.357.6-1.357H9V-.001L6.497.006C3.166.006 2.4 2.407 2.4 4.071v2.306H0v3.394h2.4c0 4.61-.032 9.228-.032 9.228H6V9.771h2.4L9 6.377z" fill="#5479E3"/></svg><svg viewBox="0 0 64 31" id="gold-place" xmlns="http://www.w3.org/2000/svg"><path d="M62.675 13.792c-1.324 1.835-3.465 1.892-3.465 1.892s-.744-1.838.612-3.713c1.358-1.882 3.359-2.178 3.359-2.178s.819 2.171-.506 3.999zm-3.578-2.883s-1.263-1.539-.519-3.728c.736-2.195 2.568-3.064 2.568-3.064s1.425 1.83.701 3.971c-.717 2.136-2.75 2.821-2.75 2.821zM47.648 30.18c13.428-11.973 8.638-21.652 8.425-22.055l.985-.505c.051.105 5.43 10.802-8.669 23.38l-.741-.82zm6.11-26.215c-.604-2.232.426-3.966.426-3.966s2.206.739 2.804 2.916c.59 2.179-.717 3.866-.717 3.866s-1.901-.58-2.513-2.816zm1.971 8.135s-2.138-.116-3.409-1.99c-1.263-1.866-.377-4.011-.377-4.011s1.99.354 3.294 2.274c1.3 1.912.492 3.727.492 3.727zm-3.122-.159s1.927.604 2.966 2.676c1.041 2.074.003 3.767.003 3.767s-2.105-.399-3.117-2.413c-1.01-2.019.148-4.03.148-4.03zm.526 11.172s-2.054-.588-2.873-2.692c-.817-2.107.526-4 .526-4s1.864.786 2.704 2.943c.832 2.16-.357 3.749-.357 3.749zm-3.612 4.804s-1.798-1.157-1.974-3.41c-.174-2.249 1.665-3.681 1.665-3.681s1.554 1.292 1.729 3.6c.175 2.3-1.42 3.491-1.42 3.491zm-36.462-3.491c.175-2.308 1.729-3.6 1.729-3.6s1.839 1.432 1.665 3.681c-.176 2.253-1.975 3.41-1.975 3.41s-1.595-1.191-1.419-3.491zm-2.193-1.313s-1.188-1.589-.356-3.749c.839-2.157 2.703-2.943 2.703-2.943s1.344 1.893.527 4c-.819 2.104-2.874 2.692-2.874 2.692zM8.271 12.1s-.808-1.815.491-3.727c1.305-1.92 3.295-2.274 3.295-2.274s.886 2.145-.378 4.011c-1.27 1.874-3.408 1.99-3.408 1.99zm-.542-5.319s-1.307-1.687-.718-3.866C7.61.738 9.816-.001 9.816-.001s1.03 1.734.425 3.966C9.63 6.201 7.729 6.781 7.729 6.781zm.698 7.836c1.039-2.072 2.966-2.676 2.966-2.676s1.158 2.011.148 4.03c-1.012 2.014-3.117 2.413-3.117 2.413s-1.038-1.693.003-3.767zm-.5-6.492c-.214.403-5.003 10.082 8.424 22.055l-.74.82C1.512 18.422 6.891 7.725 6.942 7.62l.985.505zm-5.774-.037c-.724-2.141.701-3.971.701-3.971s1.832.869 2.568 3.064c.743 2.189-.519 3.728-.519 3.728s-2.033-.685-2.75-2.821zm2.024 3.883c1.356 1.875.613 3.713.613 3.713s-2.141-.057-3.466-1.892C0 11.964.819 9.793.819 9.793s2.001.296 3.358 2.178zm.639 5.162c1.742 1.529 1.427 3.486 1.427 3.486s-2.106.418-3.809-1.077C.737 18.056 1.056 15.75 1.056 15.75s2.018-.153 3.76 1.383zm1.296 4.696c2.127.934 2.419 2.898 2.419 2.898s-1.877 1.028-3.951.121c-2.074-.913-2.472-3.202-2.472-3.202s1.87-.753 4.004.183zm3.422 4.604c2.221.677 2.748 2.585 2.748 2.585s-1.74 1.253-3.908.59c-2.166-.66-2.842-2.881-2.842-2.881s1.774-.97 4.002-.294zm44.932 0c2.228-.676 4.002.294 4.002.294s-.676 2.221-2.842 2.881c-2.168.663-3.909-.59-3.909-.59s.528-1.908 2.749-2.585zm3.291-5.814s-.315-1.957 1.427-3.486c1.742-1.536 3.76-1.383 3.76-1.383s.319 2.306-1.378 3.792c-1.703 1.495-3.809 1.077-3.809 1.077zm-2.288 4.108s.292-1.964 2.419-2.898c2.134-.936 4.004-.183 4.004-.183s-.398 2.289-2.472 3.202c-2.074.907-3.951-.121-3.951-.121z" fill="#B2942C"/></svg><svg viewBox="0 0 19 16" id="good-icon" xmlns="http://www.w3.org/2000/svg"><path d="M.702 16h3.264V6.398H.702V16zm17.959-8.801c0-.879-.737-1.597-1.634-1.597h-5.142l.818-3.681V1.68c0-.321-.163-.641-.328-.879l-.9-.801L6.09 5.28c-.326.24-.49.642-.49 1.118v8c0 .883.734 1.602 1.63 1.602h7.35c.649 0 1.223-.398 1.466-.961l2.451-5.68c.081-.16.081-.398.081-.558V7.199h.083c0 .082 0 0 0 0z" fill="#4DA340"/></svg><svg viewBox="0 0 22 19" id="google" xmlns="http://www.w3.org/2000/svg"><path d="M19.185 4.384v2.923h-1.407V4.384h-2.815V2.922h2.815V-.001h1.407v2.923H22v1.462h-2.815zM9.996.951c1.24.476 1.9 1.919 1.9 3.399 0 1.244-.69 2.313-1.664 3.073-.951.741-1.131 1.052-1.131 1.683 0 .538 1.018 1.454 1.551 1.83 1.556 1.1 2.06 2.12 2.06 3.824 0 2.126-2.06 4.239-5.79 4.239-3.272 0-6.033-1.329-6.033-3.454 0-2.158 2.518-4.239 5.79-4.239.357 0 .683-.01 1.021-.01-.447-.435-.801-.968-.801-1.626 0-.389.124-.766.299-1.099a7.53 7.53 0 01-.547.016c-2.687 0-4.488-1.909-4.488-4.274 0-2.315 2.486-4.314 5.128-4.314h5.892l-1.318.952H9.996zM7.302 11.853h-.058c-2.238 0-4.229 1.391-4.229 3.06 0 1.717 1.633 3.146 3.894 3.146 3.18 0 4.288-1.341 4.288-3.058 0-.208-.025-.41-.072-.607-.248-.972-1.129-1.454-2.357-2.306a4.883 4.883 0 00-1.466-.235zm2.476-7.387C9.516 2.475 8.072.878 6.555.832L6.489.831C5.008.832 4.023 2.34 4.281 4.301c.262 1.991 1.705 3.642 3.223 3.687l.064.001c1.482 0 2.468-1.56 2.21-3.523z" fill="#DF4C3A"/></svg><svg viewBox="0 0 18 17" id="gray-chat-message" xmlns="http://www.w3.org/2000/svg"><path d="M1.8-.001h14.4c.975 0 1.8.834 1.8 1.821v10.016c0 .987-.825 1.821-1.8 1.821H7.633l-2.91 3.239a.303.303 0 01-.223.1.301.301 0 01-.3-.304v-3.035H1.8c-.975 0-1.8-.834-1.8-1.821V1.82C0 .833.825-.001 1.8-.001z" fill="#DDD"/></svg><svg viewBox="0 0 16 18" id="gray-profile" xmlns="http://www.w3.org/2000/svg"><path d="M15.856 17.595a.913.913 0 01-.759.397H.906a.913.913 0 01-.759-.397.846.846 0 01-.068-.831l1.81-3.934a.888.888 0 01.409-.421l2.809-1.411a.187.187 0 01.193.016 4.557 4.557 0 005.403 0 .187.187 0 01.193-.016l2.809 1.411c.181.091.327.24.409.421l1.81 3.934a.846.846 0 01-.068.831zm-7.87-8.08c-2.225 0-4.029-2.13-4.029-4.758C3.957 1.114 5.761 0 7.986 0c2.226 0 4.03 1.114 4.03 4.757 0 2.628-1.804 4.758-4.03 4.758z" fill="#DDD"/></svg><svg viewBox="0 0 18 17" id="gray-star" xmlns="http://www.w3.org/2000/svg"><path d="M8.38.384A.693.693 0 019.003 0c.266 0 .509.148.626.384l2.239 4.492a.705.705 0 00.526.377l5.013.72c.263.038.48.22.562.47a.683.683 0 01-.177.706l-3.625 3.497a.682.682 0 00-.201.609l.855 4.938a.689.689 0 01-.277.676.706.706 0 01-.734.052L9.328 14.59a.696.696 0 00-.649 0l-4.485 2.329a.692.692 0 01-1.01-.726l.855-4.938a.684.684 0 00-.199-.609L.212 7.149a.685.685 0 01-.176-.706c.081-.25.3-.432.563-.47l5.012-.72a.698.698 0 00.525-.377L8.38.384z" fill="#DDD"/></svg><svg viewBox="0 0 23 18" id="gray-two-message" xmlns="http://www.w3.org/2000/svg"><path d="M21.274 9.238H18.76l1.068 2.824a.188.188 0 01-.056.211.193.193 0 01-.22.02l-3.864-2.146V7.376c0-1.768-1.464-3.206-3.264-3.206H8.849V1.695c0-.937.773-1.696 1.726-1.696h10.699c.952 0 1.726.759 1.726 1.696v5.847c0 .937-.773 1.696-1.726 1.696zm-7.123-1.862v5.847c0 .936-.773 1.696-1.727 1.696H8.946l-5.498 3.056a.2.2 0 01-.22-.021.188.188 0 01-.056-.211l1.067-2.824H1.727c-.954 0-1.727-.76-1.727-1.696V7.376C0 6.439.773 5.68 1.727 5.68h10.697c.954 0 1.727.759 1.727 1.696z" fill="#AFAFAF"/></svg><svg viewBox="0 0 17 15" id="green-chat-pluse" xmlns="http://www.w3.org/2000/svg"><path d="M14.926 11.249h-4.179l-6.605 3.72a.233.233 0 01-.264-.025.231.231 0 01-.068-.256l1.283-3.439H2.074A2.07 2.07 0 010 9.184v-7.12A2.07 2.07 0 012.074-.001h12.852A2.07 2.07 0 0117 2.064v7.12a2.07 2.07 0 01-2.074 2.065zM11 5H9V3H8v2H6v1h2v2h1V6h2V5z" fill="#4DA340"/></svg><svg viewBox="0 0 8 10" id="left-arrow" xmlns="http://www.w3.org/2000/svg"><path d="M5.877 6.464L2.341 9.999.927 8.585l3.536-3.536L.927 1.514 2.341.1l4.95 4.949-1.414 1.415z" fill="#FFF" opacity=".502"/></svg><svg viewBox="0 0 281 60.289" id="logo-plusiminus" xmlns="http://www.w3.org/2000/svg"><path fill="#4DA340" d="M129.242 28.856c0-1.879-1.354-4.185-3.011-5.125l-13.161-7.466c-1.656-.939-3.011-.171-3.011 1.708v14.934c0 1.879 1.354 4.185 3.011 5.125l13.161 7.467c1.656.94 3.011.171 3.011-1.708V28.856"/><path fill="#D14242" d="M136.772 23.732c-1.655.94-3.011 3.246-3.011 5.125v14.934c0 1.879 1.355 2.647 3.011 1.708l13.16-7.467c1.656-.939 3.011-3.246 3.011-5.125V17.973c0-1.879-1.354-2.647-3.011-1.708l-13.16 7.467"/><g fill="#FFF"><path d="M4.685 54.6H1.216v-3.236H.249v7.159h.967v-3.161h3.469v3.161h.966v-7.159h-.966zM9.255 55.204h3.273v-.762H9.255v-2.316h3.719v-.762H8.288v7.159h4.74v-.762H9.255zM19.194 54.848c.393-.154.7-.368.922-.641a1.4 1.4 0 00.334-.906c0-.651-.244-1.155-.731-1.509-.488-.354-1.151-.531-1.992-.531-.732 0-1.349.18-1.847.541-.499.361-.738.829-.719 1.407l.005.029h.922c0-.344.158-.632.474-.865s.704-.349 1.165-.349c.579 0 1.016.118 1.313.354.296.236.444.538.444.905 0 .374-.138.668-.413.885-.275.217-.696.325-1.266.325h-.898v.762h.898c.588 0 1.034.106 1.335.317.301.212.452.536.452.971 0 .394-.165.712-.496.956-.331.244-.786.367-1.369.367-.514 0-.932-.129-1.256-.386-.324-.258-.486-.573-.486-.946h-.922l-.01.029c-.016.672.241 1.184.77 1.537.53.353 1.165.529 1.903.529.844 0 1.527-.185 2.048-.556.522-.371.782-.885.782-1.545 0-.41-.117-.757-.351-1.043-.232-.288-.569-.499-1.011-.637zM25.34 51.364l-2.763 7.159h.986l.677-1.844h2.993l.667 1.844h.986l-2.719-7.159h-.827zm-.801 4.505l1.197-3.26h.029l1.178 3.26h-2.404zM34.008 54.713c.331-.121.596-.308.8-.559.203-.251.305-.536.305-.853 0-.645-.211-1.13-.633-1.453-.422-.323-1.006-.485-1.751-.485h-2.331v7.159h2.64c.726 0 1.301-.173 1.724-.519.424-.346.635-.846.635-1.502 0-.44-.124-.824-.371-1.156a1.655 1.655 0 00-1.018-.632zm-2.645-2.587h1.364c.458 0 .808.096 1.052.288.244.192.366.481.366.868 0 .354-.113.63-.339.828-.226.198-.519.298-.878.298h-1.566l.001-2.282zm2.699 5.309c-.246.217-.587.326-1.025.326h-1.674v-2.592h1.815c.426 0 .74.119.944.358.205.239.307.567.307.984.001.4-.122.707-.367.924zM38.427 56.827l-.03-.01v-5.453h-.966v7.159h.966l3.44-5.467.029.01v5.457h.967v-7.159h-.967zM46.613 52.676a1.52 1.52 0 011.291-.653c.537 0 .952.146 1.246.438.295.292.442.688.442 1.19h.927l.01-.029c.013-.711-.219-1.283-.696-1.714-.478-.431-1.12-.646-1.928-.646-.808 0-1.467.288-1.975.863-.509.575-.763 1.304-.763 2.185v1.274c0 .882.255 1.61.763 2.183.509.574 1.167.86 1.975.86.795 0 1.435-.227 1.918-.681.485-.454.719-1.017.706-1.69l-.01-.029h-.927c0 .512-.147.912-.442 1.202-.295.29-.71.436-1.246.436-.54 0-.97-.218-1.291-.653-.321-.436-.481-.979-.481-1.631v-1.283c.001-.646.16-1.186.481-1.622zM53.501 56.827l-.03-.01v-5.453h-.966v7.159h.966l3.44-5.467.029.01v5.457h.967v-7.159h-.967zM64.087 57.181h-.03l-2.276-5.817h-1.237v7.159h.967v-2.831l-.094-2.897.025-.005 2.306 5.733h.643l2.316-5.748.025.005-.098 2.912v2.831h.966v-7.159h-1.236zM72.571 51.364l-2.763 7.159h.986l.677-1.844h2.993l.667 1.844h.986L73.4 51.364h-.829zm-.8 4.505l1.197-3.26h.029l1.178 3.26h-2.404zM78.165 51.929c-.45.377-.674.905-.674 1.587 0 .466.12.861.361 1.189.241.328.591.579 1.052.756l-1.674 3.061h1.025l1.487-2.803h1.6v2.803h.966v-7.159H80.02c-.786.001-1.406.189-1.855.566zm3.177 3.029h-1.33c-.501 0-.885-.135-1.153-.404s-.403-.617-.403-1.047.133-.767.4-1.013c.267-.246.655-.369 1.165-.369h1.32l.001 2.833zM90.164 51.261c-.834 0-1.512.29-2.034.87-.522.58-.782 1.306-.782 2.178v1.274c0 .875.261 1.602.782 2.178.522.577 1.2.865 2.034.865.863 0 1.566-.289 2.107-.865.542-.576.812-1.303.812-2.178v-1.274c0-.875-.271-1.602-.812-2.181-.54-.578-1.243-.867-2.107-.867zm1.954 4.322c0 .665-.176 1.207-.528 1.625-.352.418-.827.626-1.426.626-.563 0-1.011-.21-1.347-.629-.336-.42-.503-.96-.503-1.623v-1.284c0-.655.168-1.193.503-1.613.336-.42.784-.629 1.347-.629.595 0 1.07.21 1.423.629.354.42.53.957.53 1.613l.001 1.285zM101.208 57.737h.966v2.552h-.966zM100.167 57.761h-3.474v-6.397h-.972v7.159h5.413v-7.159h-.967zM105.728 55.204H109v-.762h-3.272v-2.316h3.718v-.762h-4.685v7.159h4.739v-.762h-3.772zM116.231 54.6h-3.469v-3.236h-.967v7.159h.967v-3.161h3.469v3.161h.967v-7.159h-.967zM125.188 51.388l-.015-.024h-1.069l-2.557 3.167h-.745v-3.167h-.968v7.159h.968v-3.23h.833l2.587 3.23h1.153l.015-.024-2.975-3.674zM128.847 51.364l-2.763 7.159h.986l.677-1.844h2.993l.667 1.844h.986l-2.719-7.159h-.827zm-.801 4.505l1.197-3.26h.029l1.178 3.26h-2.404zM140.578 52.077h-.128v-1.008h-.967v1.008h-.142c-.824 0-1.512.271-2.063.813-.552.543-.827 1.235-.827 2.077 0 .849.275 1.543.824 2.08.55.538 1.238.806 2.066.806h.142v.964h.967v-.963h.128c.824 0 1.514-.271 2.068-.811.555-.541.832-1.236.832-2.085 0-.842-.278-1.534-.832-2.072-.554-.539-1.243-.809-2.068-.809zm-1.094 5.015h-.142c-.618 0-1.095-.19-1.431-.57-.336-.38-.503-.899-.503-1.557 0-.651.168-1.169.503-1.552.336-.383.812-.575 1.431-.575h.142v4.254zm2.525-.574c-.339.383-.812.574-1.421.574h-.137v-4.253h.137c.608 0 1.082.191 1.421.573s.508.896.508 1.545c0 .657-.169 1.178-.508 1.561zM146.959 56.827l-.03-.01v-5.453h-.966v7.159h.966l3.44-5.467.03.01v5.457h.966v-7.159h-.966zM158.438 54.6h-3.469v-3.236h-.967v7.159h.967v-3.161h3.469v3.161h.966v-7.159h-.966zM164.019 51.364l-2.763 7.159h.986l.677-1.844h2.993l.667 1.844h.986l-2.719-7.159h-.827zm-.8 4.505l1.197-3.26h.029l1.178 3.26h-2.404zM173.512 54.6h-3.469v-3.236h-.968v7.159h.968v-3.161h3.469v3.161h.966v-7.159h-.966zM178.258 52.676a1.52 1.52 0 011.291-.653c.537 0 .952.146 1.246.438.295.292.442.688.442 1.19h.927l.01-.029c.013-.711-.219-1.283-.696-1.714-.478-.431-1.12-.646-1.928-.646-.808 0-1.467.288-1.975.863-.509.575-.763 1.304-.763 2.185v1.274c0 .882.255 1.61.763 2.183.509.574 1.167.86 1.975.86.795 0 1.435-.227 1.918-.681a2.161 2.161 0 00.706-1.69l-.01-.029h-.927c0 .512-.147.912-.442 1.202-.295.29-.71.436-1.246.436-.54 0-.97-.218-1.291-.653-.321-.436-.481-.979-.481-1.631v-1.283c.001-.646.161-1.186.481-1.622zM186.637 51.261c-.834 0-1.513.29-2.034.87-.522.58-.782 1.306-.782 2.178v1.274c0 .875.261 1.602.782 2.178.522.577 1.2.865 2.034.865.863 0 1.566-.289 2.107-.865.542-.576.812-1.303.812-2.178v-1.274c0-.875-.271-1.602-.812-2.181-.54-.578-1.243-.867-2.107-.867zm1.953 4.322c0 .665-.176 1.207-.528 1.625-.352.418-.826.626-1.426.626-.563 0-1.012-.21-1.347-.629-.336-.42-.503-.96-.503-1.623v-1.284c0-.655.168-1.193.503-1.613.336-.42.784-.629 1.347-.629.595 0 1.07.21 1.423.629s.53.957.53 1.613v1.285h.001zM195.8 54.713c.331-.121.596-.308.8-.559.203-.251.304-.536.304-.853 0-.645-.211-1.13-.633-1.453-.422-.323-1.006-.485-1.751-.485h-2.331v7.159h2.64c.726 0 1.301-.173 1.724-.519.424-.346.635-.846.635-1.502 0-.44-.124-.824-.371-1.156a1.644 1.644 0 00-1.017-.632zm-2.644-2.587h1.364c.458 0 .808.096 1.052.288.244.192.366.481.366.868 0 .354-.113.63-.339.828-.226.198-.519.298-.878.298h-1.566v-2.282h.001zm2.698 5.309c-.246.217-.587.326-1.025.326h-1.674v-2.592h1.815c.426 0 .74.119.944.358.205.239.307.567.307.984.002.4-.121.707-.367.924zM201.952 54.196h-1.761v-2.833h-.967v7.159h2.729c.759 0 1.351-.202 1.776-.604.426-.404.637-.929.637-1.579 0-.645-.212-1.165-.635-1.557-.424-.39-1.017-.586-1.779-.586zm1.084 3.15c-.242.277-.603.415-1.084.415h-1.761v-2.803h1.761c.484 0 .846.131 1.087.393s.361.587.361.977c0 .403-.122.742-.364 1.018zM205.234 51.364h.971v7.159h-.971zM214.415 51.364h-1.168l-1.669 2.793-1.657-2.793h-1.159l2.267 3.55-2.316 3.609h1.168l1.717-2.841 1.713 2.841h1.153l-2.316-3.609zM224.675 51.388l-.014-.024h-1.07l-2.557 3.167h-.745v-3.167h-.967v7.159h.967v-3.23h.834l2.586 3.23h1.153l.015-.024-2.974-3.674zM228.844 51.261c-.834 0-1.512.29-2.034.87-.522.58-.782 1.306-.782 2.178v1.274c0 .875.261 1.602.782 2.178.522.577 1.2.865 2.034.865.863 0 1.566-.289 2.107-.865.542-.576.812-1.303.812-2.178v-1.274c0-.875-.271-1.602-.812-2.181-.541-.578-1.243-.867-2.107-.867zm1.953 4.322c0 .665-.176 1.207-.528 1.625-.352.418-.827.626-1.426.626-.563 0-1.012-.21-1.347-.629-.336-.42-.503-.96-.503-1.623v-1.284c0-.655.168-1.193.503-1.613.336-.42.784-.629 1.347-.629.595 0 1.07.21 1.423.629.354.42.53.957.53 1.613v1.285h.001zM237.939 57.181h-.029l-2.277-5.817h-1.237v7.159h.967v-2.831l-.094-2.897.025-.005 2.306 5.733h.643l2.316-5.748.024.005-.098 2.912v2.831h.966v-7.159h-1.235zM244.445 58.523h.967v-6.397h3.474v6.397h.971v-7.159h-5.412zM254.462 51.364l-2.763 7.159h.986l.677-1.844h2.993l.667 1.844h.986l-2.719-7.159h-.827zm-.8 4.505l1.197-3.26h.029l1.178 3.26h-2.404zM263.955 54.6h-3.469v-3.236h-.967v7.159h.967v-3.161h3.469v3.161h.966v-7.159h-.966zM268.555 56.827l-.03-.01v-5.453h-.966v7.159h.966l3.44-5.467.029.01v5.457h.967v-7.159h-.967zM278.841 49.852c-.115.136-.29.204-.526.204-.242 0-.419-.067-.53-.202a.8.8 0 01-.167-.526h-.741l-.01.029c-.016.381.108.69.373.929.265.24.623.359 1.074.359.448 0 .804-.12 1.07-.359.265-.239.391-.55.378-.929l-.01-.029h-.741a.77.77 0 01-.17.524zM280.034 51.364l-3.44 5.463-.03-.01v-5.453h-.966v7.159h.966l3.44-5.467.03.01v5.457H281v-7.159zM185.242 35.251c.397-.393.547-.895.448-1.505l-2.555-17.395c-.118-.767-.456-1.396-1.011-1.887s-1.227-.737-2.019-.737c-1.446 0-2.366.718-2.763 2.155l-3.723 13.943-.113-.004-3.748-13.935c-.395-1.438-1.315-2.157-2.758-2.157-.771 0-1.434.244-1.988.731s-.89 1.109-1.008 1.868l-2.138 14.32-.356 2.421c-.06.414-.09.64-.09.68 0 1.298.567 1.949 1.699 1.949.715 0 1.222-.207 1.52-.62.239-.314.407-.854.507-1.623l1.98-14.47h.058l4.04 14.203c.416 1.496 1.198 2.244 2.346 2.244s1.93-.747 2.346-2.244l3.981-14.203h.055l2.032 14.471c.1.767.269 1.298.508 1.592.299.433.797.649 1.494.649.539-.002.957-.151 1.256-.446zM209.254 13.726c-.789 0-1.5.437-2.132 1.309l-10.033 13.771a1.78 1.78 0 01-.169.184V16.172c0-1.63-.629-2.446-1.886-2.446s-1.886.816-1.886 2.447v17.368c0 1.434.564 2.153 1.693 2.153.852 0 1.575-.413 2.169-1.24l10.218-14.026v12.874c0 1.595.629 2.392 1.886 2.392S211 34.889 211 33.276v-17.25c-.001-1.533-.582-2.3-1.746-2.3zM222.416 33.207V25.95h9.297v7.256c0 1.658.629 2.488 1.886 2.488s1.886-.826 1.886-2.477V16.233c0-1.671-.629-2.507-1.886-2.507s-1.886.835-1.886 2.501v6.327h-9.297v-6.327c0-1.667-.639-2.501-1.916-2.501-1.239 0-1.857.836-1.857 2.507v16.984c0 1.651.619 2.477 1.857 2.477 1.278.001 1.916-.829 1.916-2.487zM250.646 36.196l8.258-19.694c.158-.374.238-.748.238-1.122 0-1.141-.582-1.712-1.747-1.712-.789 0-1.401.533-1.835 1.599l-4.463 10.876-.099-.012-5.089-10.98c-.454-.988-1.046-1.482-1.775-1.482-.512 0-.926.177-1.242.531-.315.354-.474.788-.474 1.299 0 .334.089.698.267 1.091l6.41 14.098-1.707 3.993c-.184.474-.276.888-.276 1.243 0 .514.148.933.446 1.258.297.327.703.489 1.218.489.831.002 1.455-.491 1.87-1.475zM278.945 34.661c1.129-.61 1.693-1.329 1.693-2.156 0-.433-.144-.821-.432-1.167a1.36 1.36 0 00-1.087-.517c-.298 0-.759.158-1.385.473-.625.315-1.226.557-1.802.723-.576.167-1.28.251-2.114.251-1.906 0-3.425-.807-4.556-2.422-.973-1.397-1.459-3.089-1.459-5.078 0-1.968.476-3.69 1.429-5.167 1.111-1.692 2.61-2.539 4.496-2.539.675 0 1.241.059 1.698.177.715.197 1.479.521 2.293.975.377.217.685.325.923.325.436 0 .818-.163 1.146-.487.328-.325.491-.704.491-1.137 0-.433-.168-.847-.505-1.241-1.208-1.418-3.179-2.126-5.912-2.126-3.089 0-5.575 1.113-7.456 3.337-1.782 2.106-2.673 4.715-2.673 7.825 0 3.129.881 5.728 2.643 7.794 1.862 2.205 4.337 3.307 7.426 3.307.753 0 1.525-.069 2.317-.207 1.054-.176 1.995-.49 2.826-.943zM17.111 16.757c0-1.677-.763-2.515-2.289-2.515H2.354c-1.526 0-2.289.838-2.289 2.515v17.124c0 1.637.627 2.455 1.883 2.455 1.295 0 1.943-.828 1.943-2.486V17.625h9.396v16.226c0 1.658.648 2.486 1.943 2.486 1.255 0 1.882-.818 1.882-2.455V16.757zM42.963 33.882V16.637c0-1.677-.613-2.515-1.837-2.515h-8.192c-1.667 0-2.846.345-3.54 1.032-.692.689-1.039 1.862-1.039 3.518v12.304c0 1.078-.331 1.707-.994 1.886-.623.061-1.234.11-1.837.149-.662.119-.994.649-.994 1.587 0 1.158.934 1.737 2.801 1.737 3.031 0 4.548-1.497 4.548-4.491v-13.02c0-.898.413-1.347 1.24-1.347h6.019v16.376c0 1.658.637 2.486 1.912 2.486 1.276-.002 1.913-.82 1.913-2.457zM67.928 14.063c-2.634 0-4.775.875-6.425 2.625-1.508 1.612-2.423 3.75-2.745 6.416h-3.166v-6.497c0-1.656-.637-2.485-1.912-2.485s-1.912.828-1.912 2.485v17.334c0 1.656.637 2.485 1.912 2.485s1.912-.838 1.912-2.515v-7.604h3.076c.201 2.854 1.056 5.189 2.563 7.005 1.689 2.017 3.921 3.024 6.695 3.024 2.995 0 5.338-1.146 7.027-3.439 1.508-2.032 2.262-4.594 2.262-7.684 0-3.13-.734-5.711-2.202-7.744-1.667-2.27-4.029-3.406-7.085-3.406zm3.793 16.933c-.994 1.344-2.255 2.017-3.78 2.017-1.506 0-2.761-.672-3.765-2.017-1.004-1.344-1.506-3.291-1.506-5.842 0-2.59.502-4.532 1.506-5.827 1.003-1.295 2.259-1.943 3.765-1.943 1.525 0 2.785.643 3.78 1.928s1.49 3.232 1.49 5.841c.001 2.552-.497 4.499-1.49 5.843zM101.322 33.103c0-.439-.146-.833-.438-1.183a1.379 1.379 0 00-1.102-.524c-.302 0-.77.16-1.404.479-.634.32-1.242.564-1.827.733-.584.169-1.298.255-2.143.255-1.932 0-3.471-.818-4.619-2.455-.986-1.416-1.479-3.132-1.479-5.149 0-1.995.483-3.742 1.449-5.239 1.127-1.716 2.646-2.574 4.558-2.574.685 0 1.258.059 1.721.18.725.2 1.499.529 2.324.989.383.22.695.33.936.33.442 0 .829-.165 1.162-.494.332-.33.498-.714.498-1.153 0-.439-.171-.859-.512-1.258-1.224-1.438-3.223-2.156-5.994-2.156-3.132 0-5.653 1.129-7.559 3.384-1.807 2.136-2.71 4.781-2.71 7.934 0 3.173.893 5.808 2.68 7.903 1.888 2.235 4.397 3.353 7.529 3.353.763 0 1.546-.07 2.349-.21 1.064-.18 2.018-.498 2.861-.957 1.148-.621 1.72-1.35 1.72-2.188zM149.192 26.845c0-1.128-.69-1.623-1.542-1.105l-8.344 5.066c-.852.517-1.542 1.85-1.542 2.978v.241c0 1.127.69 1.623 1.542 1.105l8.344-5.066c.852-.517 1.542-1.85 1.542-2.978v-.241zM117.893 34.968c0 1.128.69 2.461 1.542 2.978l.181.11c.852.517 1.542.022 1.542-1.106v-3.363l2.54 1.542c.852.517 1.542.022 1.542-1.105v-.241c0-1.128-.69-2.462-1.542-2.978l-2.54-1.542V25.9c0-1.128-.69-2.462-1.542-2.978l-.181-.11c-.852-.517-1.542-.022-1.542 1.106v3.364l-2.54-1.542c-.852-.517-1.542-.023-1.542 1.105v.241c0 1.128.69 2.461 1.542 2.978l2.54 1.542v3.362z"/></g><path fill="#FFF" d="M129.924.738c-.03.018-.06.035-.089.054-.014.008-.027.018-.04.027a1.082 1.082 0 00-.043.029l-.047.034-.03.023-.048.039-.025.021a.897.897 0 00-.046.041l-.023.02-.041.041-.023.023-.035.039-.023.027-.028.036c-.008.011-.017.021-.024.032a.61.61 0 00-.046.069.419.419 0 00-.017.028l-.024.042-.013.025-.022.046-.009.024-.019.048a.868.868 0 00-.021.072l-.007.028c-.003.015-.007.029-.009.044a.47.47 0 00-.005.037l-.005.036-.004.074-.081 14.344-11.05-6.421c-1.009-.586-2.65-.586-3.666 0-1.015.586-1.021 1.537-.012 2.123l15.46 8.984c.03.018.061.034.092.051l.047.023c.016.008.032.017.049.024l.06.028.038.018a1.381 1.381 0 00.103.042l.071.026.036.013.071.024.04.013.068.02.047.013a1.412 1.412 0 00.117.03l.056.013.064.014a.737.737 0 00.05.01l.072.014a.67.67 0 00.044.007l.078.012.042.006.082.01.042.004.082.008.049.003.076.005.065.003.061.003c.085.002.171.002.256 0l.061-.002.066-.003.076-.005.049-.004.083-.008.042-.005.083-.01.04-.005.079-.012.044-.007.072-.014a.884.884 0 00.05-.01l.065-.014.056-.013.056-.014.062-.016.047-.013.068-.02.04-.013c.024-.008.048-.015.071-.024l.036-.013.071-.026.035-.015a1.95 1.95 0 00.068-.028l.039-.018.06-.027.05-.025.046-.023a3.9 3.9 0 00.093-.051c.03-.018.06-.035.089-.054l.04-.027.043-.029a.818.818 0 00.047-.035l.03-.022.048-.039a1.834 1.834 0 00.07-.061l.023-.021a.793.793 0 00.041-.041l.023-.023.035-.039.023-.027.029-.036.024-.032.022-.032.024-.037.017-.029.024-.042.013-.025.022-.046a.434.434 0 00.049-.144l.007-.028c.003-.015.007-.029.009-.044a.47.47 0 00.005-.037c.001-.012.004-.024.004-.036.002-.025.004-.049.004-.074l.081-14.344 11.05 6.421c1.009.586 2.65.586 3.666 0 1.015-.586 1.021-1.537.012-2.123L133.589.736a1.382 1.382 0 00-.139-.074l-.049-.025-.06-.027-.039-.018-.067-.028-.036-.014a1.486 1.486 0 00-.071-.026l-.036-.013a1.905 1.905 0 00-.07-.023l-.04-.013a1.349 1.349 0 00-.068-.02l-.047-.014-.062-.016-.055-.014-.056-.013a1.24 1.24 0 00-.065-.014l-.049-.01-.073-.014-.043-.007-.079-.012-.041-.005-.082-.011-.042-.004a2.274 2.274 0 00-.082-.008c-.016-.002-.033-.002-.049-.003a1.938 1.938 0 00-.076-.005l-.065-.003a5.505 5.505 0 00-.318-.003l-.061.003-.065.003-.077.005-.049.004-.083.008-.041.004-.083.011-.041.005-.079.012-.044.007-.073.014a.707.707 0 00-.049.01l-.065.014a1.131 1.131 0 00-.056.013l-.056.014-.063.016-.047.013-.068.02-.04.013c-.023.008-.048.015-.071.024l-.035.013a1.486 1.486 0 00-.071.026l-.036.014a1.95 1.95 0 00-.068.028l-.039.018-.06.027-.05.025-.046.023-.09.052"/></svg><svg viewBox="0 -4.244 42.882 45.756" id="logo-plusiminus-icon" xmlns="http://www.w3.org/2000/svg"><path fill="#4DA340" d="M19.182 24.468c0-1.879-1.354-4.185-3.011-5.125l-13.16-7.466C1.354 10.937 0 11.706 0 13.585v14.934c0 1.879 1.354 4.185 3.011 5.125l13.161 7.467c1.656.94 3.011.171 3.011-1.708V24.468"/><path fill="#D14242" d="M26.712 19.344c-1.655.94-3.011 3.246-3.011 5.125v14.934c0 1.879 1.355 2.647 3.011 1.708l13.16-7.467c1.656-.939 3.011-3.246 3.011-5.125V13.585c0-1.879-1.354-2.647-3.011-1.708l-13.16 7.467"/><g fill="#FFF"><path d="M39.132 22.456c0-1.128-.69-1.623-1.542-1.105l-8.344 5.066c-.852.517-1.542 1.85-1.542 2.978v.241c0 1.127.69 1.623 1.542 1.105l8.344-5.066c.852-.517 1.542-1.85 1.542-2.978v-.241zM7.833 30.58c0 1.128.69 2.461 1.542 2.978l.181.11c.852.517 1.542.022 1.542-1.106v-3.363l2.54 1.542c.852.517 1.542.022 1.542-1.105v-.241c0-1.128-.69-2.462-1.542-2.978l-2.54-1.542v-3.363c0-1.128-.69-2.462-1.542-2.978l-.181-.11c-.852-.517-1.542-.022-1.542 1.106v3.364l-2.54-1.542c-.852-.517-1.542-.023-1.542 1.105v.241c0 1.128.69 2.461 1.542 2.978l2.54 1.542v3.362z"/></g><path fill="#FFF" d="M19.864-3.651c-.03.018-.06.035-.089.054-.014.008-.027.018-.04.027a1.082 1.082 0 00-.043.029l-.047.034-.03.023-.048.039-.025.021a.897.897 0 00-.046.041l-.023.02-.041.041-.023.023-.035.039-.023.027-.028.036c-.008.011-.017.021-.024.032a.61.61 0 00-.046.069.419.419 0 00-.017.028l-.024.042-.013.025-.022.046-.009.024-.019.048a.868.868 0 00-.021.072l-.007.028c-.003.015-.007.029-.009.044a.47.47 0 00-.005.037l-.005.036-.004.074-.081 14.344L7.969 5.334c-1.009-.586-2.65-.586-3.666 0s-1.02 1.537-.012 2.123l15.46 8.984c.03.018.061.034.092.051l.047.023c.016.008.032.017.049.024l.06.028.038.018a1.381 1.381 0 00.103.042l.071.026.036.013.071.024.04.013.068.02.047.013a1.412 1.412 0 00.117.03l.056.013.064.014a.737.737 0 00.05.01l.072.014a.67.67 0 00.044.007l.078.012.042.006.082.01.042.004.082.008.049.003.076.005.065.003.061.003c.085.002.171.002.256 0l.061-.002.066-.003.076-.005.049-.004.083-.008.042-.005.083-.01.04-.005.079-.012.044-.007.072-.014a.884.884 0 00.05-.01l.065-.014.056-.013.056-.014.062-.016.047-.013.068-.02.04-.013c.024-.008.048-.015.071-.024l.036-.013.071-.026.035-.015a1.95 1.95 0 00.068-.028l.039-.018.06-.027.05-.025.046-.023a3.9 3.9 0 00.093-.051c.03-.018.06-.035.089-.054l.04-.027.043-.029a.818.818 0 00.047-.035l.03-.022.048-.039a1.834 1.834 0 00.07-.061l.023-.021a.793.793 0 00.041-.041l.023-.023.035-.039.023-.027.029-.036.024-.032.022-.032.024-.037.017-.029.024-.042.013-.025.022-.046a.434.434 0 00.049-.144l.007-.028c.003-.015.007-.029.009-.044a.47.47 0 00.005-.037c.001-.012.004-.024.004-.036.002-.025.004-.049.004-.074l.081-14.344 11.05 6.421c1.009.586 2.65.586 3.666 0 1.015-.586 1.021-1.537.012-2.123L23.53-3.65c-.03-.018-.061-.034-.093-.051a.986.986 0 00-.046-.023l-.049-.025-.06-.027-.039-.018-.067-.028-.036-.014a1.486 1.486 0 00-.071-.026l-.036-.013a1.905 1.905 0 00-.07-.023l-.04-.013a1.349 1.349 0 00-.068-.02l-.047-.014-.062-.016-.055-.014-.056-.013-.065-.014-.049-.01-.073-.014-.043-.007-.079-.012-.041-.005-.082-.011-.042-.004a2.274 2.274 0 00-.082-.008c-.016-.002-.033-.002-.049-.003a1.938 1.938 0 00-.076-.005l-.065-.003a5.505 5.505 0 00-.318-.003l-.061.003-.065.003-.077.005-.049.004-.083.008-.041.004-.083.011a.175.175 0 00-.039.003l-.079.012-.044.007-.073.014a.707.707 0 00-.049.01l-.065.014a1.131 1.131 0 00-.056.013l-.056.014-.063.016-.047.013-.068.02-.04.013c-.023.008-.048.015-.071.024l-.035.013a1.486 1.486 0 00-.071.026l-.036.014a1.95 1.95 0 00-.068.028l-.039.018-.06.027-.05.025-.046.023-.093.051"/></svg><svg viewBox="0 0 18 17" id="menu" xmlns="http://www.w3.org/2000/svg"><path d="M17 17H1a1 1 0 01-1-1v-1a1 1 0 011-1h16a1 1 0 011 1v1a1 1 0 01-1 1zm0-7H1a1 1 0 01-1-1V8a1 1 0 011-1h16a1 1 0 011 1v1a1 1 0 01-1 1zm0-7H1a1 1 0 01-1-1V1a1 1 0 011-1h16a1 1 0 011 1v1a1 1 0 01-1 1z" fill="#FFF"/></svg><svg viewBox="0 0 21 18" id="red-attension" xmlns="http://www.w3.org/2000/svg"><path d="M20.813 15.998L11.691.658c-.529-.889-1.853-.889-2.382 0L.187 15.998c-.529.888.133 2.003 1.19 2.003h18.245c1.058 0 1.72-1.115 1.191-2.003zm-10.3-10.616c.584 0 1.057.471 1.04 1.039l-.172 5.825a.86.86 0 01-.873.822.862.862 0 01-.872-.822l-.168-5.825c-.013-.568.456-1.039 1.045-1.039zM10.5 15.918c-.598 0-1.084-.471-1.084-1.051s.486-1.052 1.084-1.052c.597 0 1.083.472 1.083 1.052 0 .58-.486 1.051-1.083 1.051z" fill="#D14242"/></svg><svg viewBox="0 0 17 15" id="red-chat-minus" xmlns="http://www.w3.org/2000/svg"><path d="M14.926 11.249h-4.179l-6.605 3.72a.234.234 0 01-.264-.025.23.23 0 01-.068-.256l1.283-3.439H2.074A2.07 2.07 0 010 9.184v-7.12A2.07 2.07 0 012.074-.001h12.852A2.07 2.07 0 0117 2.064v7.12a2.07 2.07 0 01-2.074 2.065zM11 5H6v1h5V5z" fill="#D14242"/></svg><svg viewBox="0 0 8 10" id="right-arrow" xmlns="http://www.w3.org/2000/svg"><path d="M7.073 8.585L5.658 9.999 2.123 6.464.709 5.049 5.658.1l1.415 1.414-3.536 3.535 3.536 3.536z" fill="#FFF" opacity=".502"/></svg><svg viewBox="0 0 18 18" id="search-icon" xmlns="http://www.w3.org/2000/svg"><path d="M17.417 15.307l-3.879-3.879c-.02-.021-.044-.035-.066-.054a7.341 7.341 0 10-2.098 2.098c.019.021.034.045.055.066l3.878 3.879a1.493 1.493 0 002.11-2.11zM7.34 12.136a4.796 4.796 0 11.002-9.592 4.796 4.796 0 01-.002 9.592z" fill="#FFF"/></svg><svg viewBox="0 0 64 31" id="silver-place" xmlns="http://www.w3.org/2000/svg"><path d="M62.675 13.792c-1.324 1.835-3.465 1.893-3.465 1.893s-.744-1.84.612-3.714c1.358-1.882 3.359-2.178 3.359-2.178s.819 2.172-.506 3.999zm-3.578-2.883s-1.263-1.539-.519-3.728c.736-2.195 2.568-3.064 2.568-3.064s1.425 1.83.701 3.971c-.717 2.136-2.75 2.821-2.75 2.821zM47.648 30.18c13.428-11.973 8.638-21.652 8.425-22.055l.985-.505c.051.105 5.43 10.802-8.669 23.38l-.741-.82zm6.11-26.216c-.604-2.231.426-3.965.426-3.965s2.206.739 2.804 2.916c.59 2.179-.717 3.866-.717 3.866s-1.901-.58-2.513-2.817zm1.971 8.136s-2.138-.116-3.409-1.99c-1.263-1.866-.377-4.011-.377-4.011s1.99.354 3.294 2.274c1.3 1.912.492 3.727.492 3.727zm-3.122-.159s1.927.605 2.966 2.676c1.041 2.074.003 3.766.003 3.766s-2.105-.398-3.117-2.412c-1.01-2.019.148-4.03.148-4.03zm.526 11.172s-2.054-.588-2.873-2.693c-.817-2.106.526-3.999.526-3.999s1.864.786 2.704 2.944c.832 2.159-.357 3.748-.357 3.748zm-3.612 4.804s-1.798-1.157-1.974-3.411c-.174-2.248 1.665-3.68 1.665-3.68s1.554 1.292 1.729 3.6c.175 2.3-1.42 3.491-1.42 3.491zm-36.462-3.491c.175-2.308 1.729-3.6 1.729-3.6s1.839 1.432 1.665 3.68c-.176 2.254-1.975 3.411-1.975 3.411s-1.595-1.191-1.419-3.491zm-2.193-1.313s-1.188-1.589-.356-3.748c.839-2.158 2.703-2.944 2.703-2.944s1.344 1.893.527 3.999c-.819 2.105-2.874 2.693-2.874 2.693zM8.271 12.1s-.808-1.815.491-3.727c1.305-1.92 3.295-2.274 3.295-2.274s.886 2.145-.378 4.011c-1.27 1.874-3.408 1.99-3.408 1.99zm-.542-5.319s-1.307-1.687-.718-3.866C7.61.738 9.816-.001 9.816-.001s1.03 1.734.425 3.965C9.63 6.201 7.729 6.781 7.729 6.781zm.698 7.836c1.039-2.071 2.966-2.676 2.966-2.676s1.158 2.011.148 4.03c-1.012 2.014-3.117 2.412-3.117 2.412s-1.038-1.692.003-3.766zm-.5-6.492c-.214.403-5.003 10.082 8.424 22.055l-.74.82C1.512 18.422 6.891 7.725 6.942 7.62l.985.505zm-5.774-.037c-.724-2.141.701-3.971.701-3.971s1.832.869 2.568 3.064c.743 2.189-.519 3.728-.519 3.728s-2.033-.685-2.75-2.821zm2.024 3.883c1.356 1.874.613 3.714.613 3.714s-2.141-.058-3.466-1.893C0 11.965.819 9.793.819 9.793s2.001.296 3.358 2.178zm.639 5.162c1.742 1.529 1.427 3.486 1.427 3.486s-2.106.418-3.809-1.077C.737 18.056 1.056 15.75 1.056 15.75s2.018-.153 3.76 1.383zm1.296 4.696c2.127.934 2.419 2.898 2.419 2.898s-1.877 1.028-3.951.121c-2.074-.914-2.472-3.201-2.472-3.201s1.87-.754 4.004.182zm3.422 4.604c2.221.677 2.748 2.585 2.748 2.585s-1.74 1.253-3.908.59c-2.166-.66-2.842-2.881-2.842-2.881s1.774-.97 4.002-.294zm44.932 0c2.228-.676 4.002.294 4.002.294s-.676 2.221-2.842 2.881c-2.168.663-3.909-.59-3.909-.59s.528-1.908 2.749-2.585zm3.291-5.814s-.315-1.957 1.427-3.486c1.742-1.536 3.76-1.383 3.76-1.383s.319 2.306-1.378 3.792c-1.703 1.495-3.809 1.077-3.809 1.077zm-2.288 4.108s.292-1.964 2.419-2.898c2.134-.936 4.004-.182 4.004-.182s-.398 2.287-2.472 3.201c-2.074.907-3.951-.121-3.951-.121z" fill="#66777B"/></svg><svg viewBox="0 0 23 18" id="twitter-icon" xmlns="http://www.w3.org/2000/svg"><path d="M23 2.118a9.71 9.71 0 01-2.709.719 4.616 4.616 0 002.076-2.52 9.606 9.606 0 01-3.003 1.105 4.791 4.791 0 00-3.439-1.436c-2.603 0-4.716 2.039-4.716 4.55 0 .358.043.703.121 1.036C7.406 5.381 3.933 3.574 1.603.818a4.395 4.395 0 00-.64 2.29c0 1.577.836 2.972 2.099 3.783a4.776 4.776 0 01-2.133-.569v.057c0 2.205 1.628 4.046 3.782 4.467a5.059 5.059 0 01-2.132.074c.603 1.808 2.342 3.12 4.407 3.161a9.702 9.702 0 01-5.861 1.943c-.379 0-.751-.021-1.123-.061a13.711 13.711 0 007.235 2.043c8.674 0 13.418-6.932 13.418-12.942l-.014-.589A9.337 9.337 0 0023 2.118z" fill="#3DA6D4"/></svg><svg viewBox="0 0 10 6" id="up-arrow" xmlns="http://www.w3.org/2000/svg"><path d="M8.571 6L5 2.666 1.429 6 0 4.666 5-.001l5 4.667L8.571 6z" fill="#FFF" opacity=".502"/></svg><svg viewBox="0 0 16 19" id="vkontakte" xmlns="http://www.w3.org/2000/svg"><path d="M14.73 10.099c-.736-.761-1.715-1.265-2.938-1.512v-.102c.851-.34 1.517-.872 2.001-1.595.482-.723.724-1.548.724-2.476 0-.799-.175-1.506-.525-2.118-.35-.612-.88-1.101-1.589-1.467a6.534 6.534 0 00-2.107-.67c-.749-.106-1.85-.16-3.303-.16H0v19h7.923c1.374 0 2.506-.118 3.397-.357a7.089 7.089 0 002.453-1.199 5.138 5.138 0 001.502-1.774c.372-.714.558-1.544.558-2.488 0-1.293-.368-2.321-1.103-3.082zm-5.491-3.63c-.151.314-.425.561-.824.74a2.959 2.959 0 01-1.057.268 42.16 42.16 0 01-1.788.025h-.625V3.483h.346c.886 0 1.553.007 2.001.019.447.012.835.087 1.163.223.346.145.6.38.764.702.164.323.246.638.246.944 0 .417-.075.783-.226 1.098zm1.164 7.854c-.209.361-.539.636-.991.823a4.33 4.33 0 01-1.516.344c-.496.017-1.391.026-2.685.026h-.266v-4.759h.918c.886 0 1.593.006 2.12.018.527.013.941.075 1.243.185.496.171.868.422 1.117.753.248.332.372.791.372 1.378 0 .46-.105.87-.312 1.232z" fill="#4C7EBA"/></svg></svg>