<?xml version="1.0" encoding="utf-8"?><svg viewBox="0 0 23 23" xmlns="http://www.w3.org/2000/svg" xmlns:xlink="http://www.w3.org/1999/xlink"><style>:root>svg{display:none}:root>svg:target{display:block}</style><svg viewBox="0 0 23 20" id="arrows-up-down" xmlns="http://www.w3.org/2000/svg"><path d="M22.834 14.297l-5.479 5.547a.507.507 0 01-.376.156.532.532 0 01-.394-.156l-5.477-5.563a.548.548 0 01-.154-.4c0-.151.054-.282.163-.392a.52.52 0 01.385-.165h3.286V.556c0-.15.055-.28.163-.39A.519.519 0 0115.335 0h3.287c.149 0 .277.055.386.166.108.11.162.24.162.39v12.768h3.286c.149 0 .277.055.386.165.109.11.162.241.162.392a.655.655 0 01-.17.416zM11.502 6.676H8.215v12.767a.538.538 0 01-.163.391.52.52 0 01-.385.166H4.381a.522.522 0 01-.386-.166.533.533 0 01-.162-.391V6.676H.546a.529.529 0 01-.548-.556c0-.139.058-.278.171-.418L5.63.157A.527.527 0 016.023 0c.16 0 .292.052.394.156l5.479 5.564a.548.548 0 01.153.399.54.54 0 01-.163.392.523.523 0 01-.384.165z" fill="#3E7735"/></svg><svg viewBox="0 0 23 21" id="attension" xmlns="http://www.w3.org/2000/svg"><path d="M22.541 15.794L14.483 1.74c-1.316-2.321-4.644-2.321-5.956 0L.465 15.794C-.852 18.116.787 21 3.443 21h16.091c2.656 0 4.323-2.912 3.007-5.206zM11.5 17.883c-.7 0-1.283-.587-1.283-1.292 0-.706.583-1.293 1.283-1.293.701 0 1.283.587 1.255 1.326.033.672-.582 1.259-1.255 1.259zm1.17-8.353c-.057 1.001-.119 1.998-.175 2.999-.029.324-.029.62-.029.939-.028.529-.44.939-.966.939a.947.947 0 01-.965-.91c-.086-1.559-.176-3.09-.261-4.649-.028-.41-.057-.824-.09-1.234 0-.677.379-1.235.994-1.411a1.284 1.284 0 011.492.734c.09.205.118.41.118.648-.028.653-.09 1.302-.118 1.945z" fill="#3E7735"/></svg><svg viewBox="0 0 23 23" id="balance" xmlns="http://www.w3.org/2000/svg"><path d="M18.535 14.669a4.47 4.47 0 01-4.466-4.466V9.52H23v.683a4.47 4.47 0 01-4.465 4.466zm0-8.305l-.963 1.79H16.02l1.371-2.549h-3.972v9.908h-3.75V5.605h-4.06l1.37 2.549H5.428l-.963-1.79-.962 1.79H1.951l2.106-3.916h5.612V1.875C9.669.841 10.51 0 11.544 0s1.875.841 1.875 1.875v2.363h5.524l2.106 3.916h-1.552l-.962-1.79zM2.768 9.52h6.163v.683a4.47 4.47 0 01-4.466 4.466A4.47 4.47 0 010 10.203V9.52h2.768zm5.497 7.359h6.47a2.38 2.38 0 012.377 2.377H5.888a2.38 2.38 0 012.377-2.377zM18.455 23H4.545v-2.377h13.91V23z" fill="#3E7735"/></svg><svg viewBox="0 0 23 23" id="bar-chart" xmlns="http://www.w3.org/2000/svg"><path d="M21.837 23.001H1.163a1.161 1.161 0 110-2.321h20.674c.642 0 1.163.52 1.163 1.161 0 .64-.521 1.16-1.163 1.16zm-1.148-3.868h-2.743a.469.469 0 01-.47-.468V3.812a.47.47 0 01.47-.468h2.743c.259 0 .47.21.47.468v14.853a.469.469 0 01-.47.468zM15.478 7.484a.47.47 0 01.469.469v10.712c0 .259-.21.468-.469.468h-2.744a.469.469 0 01-.47-.468V7.953a.47.47 0 01.47-.469h2.744zm-7.955 5.825h2.743c.259 0 .47.21.47.468v4.888a.469.469 0 01-.47.468H7.523a.469.469 0 01-.47-.468v-4.888a.47.47 0 01.47-.468zm-2.468-2.07c.259 0 .47.21.47.468v6.958a.469.469 0 01-.47.468H2.311a.469.469 0 01-.469-.468v-6.958a.47.47 0 01.469-.468h2.744zm9.091-6.273a.141.141 0 01-.152.049.142.142 0 01-.099-.124l-.133-1.958-4.319 2.12L7.08 9.024a.778.778 0 01-.963.319L.867 7.184a.773.773 0 11.592-1.43l4.629 1.905 2.139-3.594a.788.788 0 01.325-.299l4.525-2.221L11.602.244A.14.14 0 0111.696 0l5.944.01c.059 0 .113.034.139.088a.155.155 0 01-.016.164l-3.617 4.704z" fill="#3E7735"/></svg><svg viewBox="0 0 23 23" id="bitcoin" xmlns="http://www.w3.org/2000/svg"><path d="M11.5 23C5.179 23 0 17.82 0 11.5 0 5.179 5.179 0 11.5 0 17.82 0 23 5.179 23 11.5 23 17.82 17.82 23 11.5 23zm7.167-18.667c-1.925-1.925-4.47-2.986-7.167-2.986S6.258 2.408 4.333 4.333C2.408 6.258 1.348 8.803 1.348 11.5s1.06 5.242 2.985 7.167c1.925 1.925 4.47 2.985 7.167 2.985s5.242-1.06 7.167-2.985c1.925-1.925 2.985-4.47 2.985-7.167s-1.06-5.242-2.985-7.167zm-.953 13.381a8.736 8.736 0 01-6.214 2.591 8.736 8.736 0 01-6.214-2.591A8.736 8.736 0 012.695 11.5c0-2.337.92-4.544 2.591-6.214A8.736 8.736 0 0111.5 2.695c2.337 0 4.544.92 6.214 2.591a8.736 8.736 0 012.591 6.214c0 2.337-.92 4.544-2.591 6.214zm-2.171-8.236a2.703 2.703 0 00-2.695-2.695V5.435H11.5v1.348h-1.348V5.435H8.805v1.348H7.457v1.348h1.348v6.738H7.457v1.348h1.348v1.347h1.347v-1.347H11.5v1.347h1.348v-1.347a2.703 2.703 0 002.695-2.696c0-.808-.364-1.536-.93-2.021.566-.485.93-1.213.93-2.022zm-2.695 5.391h-2.696v-2.695h2.696a1.35 1.35 0 011.347 1.347c0 .742-.606 1.348-1.347 1.348zm0-4.043h-2.696V8.131h2.696a1.35 1.35 0 011.347 1.347c0 .742-.606 1.348-1.347 1.348z" fill="#3E7735"/></svg><svg viewBox="0 0 18 23" id="calculator" xmlns="http://www.w3.org/2000/svg"><path d="M16.94 22.997H1.055a1.052 1.052 0 01-1.057-1.046V1.055C-.002.477.472.009 1.055.009H16.94c.585 0 1.06.468 1.06 1.046v20.896c0 .577-.475 1.046-1.06 1.046zM15.882 2.099H2.115v3.133h13.767V2.099zm0 5.225H2.115v13.581h13.767V7.324zm-12.179.924h2.2c.293 0 .53.232.528.52v2.171a.527.527 0 01-.528.524h-2.2a.526.526 0 01-.527-.524V8.768c0-.286.234-.52.527-.52zm0 4.258h2.2c.293 0 .53.234.528.523V15.2a.525.525 0 01-.528.522h-2.2a.525.525 0 01-.527-.522v-2.171c0-.289.234-.523.527-.523zm0 4.26h2.2c.293 0 .53.234.528.523v2.171a.526.526 0 01-.528.523h-2.2a.526.526 0 01-.527-.523v-2.171c0-.289.234-.523.527-.523zM7.9 8.248h2.198c.292 0 .529.232.529.52v2.171a.527.527 0 01-.529.524H7.9a.527.527 0 01-.53-.524V8.768c0-.286.237-.52.53-.52zm0 4.258h2.198c.292 0 .529.234.529.523V15.2a.525.525 0 01-.529.522H7.9a.525.525 0 01-.53-.522v-2.171c0-.289.237-.523.53-.523zm0 4.26h2.198c.292 0 .529.234.529.523v2.171a.526.526 0 01-.529.523H7.9a.526.526 0 01-.53-.523v-2.171c0-.289.237-.523.53-.523zm4.194-8.518h2.2c.291 0 .528.232.528.52v2.171a.527.527 0 01-.528.524h-2.2a.526.526 0 01-.527-.524V8.768c0-.286.237-.52.527-.52zm0 4.258h2.2c.291 0 .528.234.528.523v6.431a.526.526 0 01-.528.523h-2.2a.526.526 0 01-.527-.523v-6.431c0-.289.237-.523.527-.523z" fill="#3E7735"/></svg><svg viewBox="0 0 23 21" id="chat-message" xmlns="http://www.w3.org/2000/svg"><path d="M2.3.002h18.399C21.946.002 23 1.033 23 2.252v12.371c0 1.22-1.054 2.25-2.301 2.25H9.753l-3.718 4.002a.393.393 0 01-.424.097.373.373 0 01-.245-.349v-3.75H2.3c-1.246 0-2.3-1.03-2.3-2.25V2.252C0 1.033 1.054.002 2.3.002z" fill="#3E7735"/></svg><svg viewBox="0 0 23 23" id="chat-money" xmlns="http://www.w3.org/2000/svg"><path d="M22.02 19.274l.945 2.839a.675.675 0 01-.852.852l-2.841-.944a7.4 7.4 0 01-3.684.979c-4.087 0-7.412-3.325-7.412-7.412s3.325-7.412 7.412-7.412S23 11.501 23 15.588c0 1.3-.338 2.567-.98 3.686zm-6.432-5.708c.24 0 .464.129.584.338a.674.674 0 001.166-.675 2.009 2.009 0 00-1.076-.879v-.778a.674.674 0 10-1.348 0v.771a2.02 2.02 0 00-1.348 1.897c0 1.115.907 2.022 2.022 2.022a.674.674 0 11-.584 1.01.673.673 0 10-1.166.675c.242.42.632.719 1.076.878v.752a.674.674 0 001.348 0v-.744a2.018 2.018 0 001.348-1.898 2.024 2.024 0 00-2.022-2.021.674.674 0 010-1.348zm-6.154-5.48a.673.673 0 00-.674.674c0 .304.205.551.482.635a8.722 8.722 0 00-2.467 5.37c-1.066-.094-2.116-.386-3.047-.92l-2.841.944a.675.675 0 01-.852-.852l.945-2.839A7.395 7.395 0 010 7.412C0 3.325 3.325 0 7.412 0c3.872 0 7.055 2.985 7.38 6.774-1.776.143-3.385.839-4.705 1.885a.665.665 0 00-.653-.573zM5.391 4.043a.673.673 0 10-.002 1.346.673.673 0 00.002-1.346zm4.519.197a.674.674 0 00-.953 0L4.914 8.283a.674.674 0 00.953.953L9.91 5.193a.674.674 0 000-.953z" fill="#3E7735"/></svg><svg viewBox="0 0 22 23" id="credit-cards" xmlns="http://www.w3.org/2000/svg"><path d="M21.381 13.684l-1.653 1.628v-2.131l.581-.562a.577.577 0 00.175-.386.544.544 0 00-.16-.388L10.084 1.67a.551.551 0 00-.778.008L6.126 4.85l5.208 5.201H7.957l-3.519-3.52-.74.713a.572.572 0 000 .794l2.003 2.013H3.555l-.93-.948a2.077 2.077 0 010-2.93L8.233.602a2.07 2.07 0 012.921 0l10.24 10.177c.809.801.793 2.102-.013 2.905zm-4.792-2.678c1.141 0 2.042.912 2.042 2.046v5.445H-.009v-5.445c0-1.134.976-2.046 2.117-2.046h14.481zm-15.12 4.145c0 .824.672 1.491 1.504 1.491.403 0 .767-.158 1.039-.415.268.257.636.415 1.039.415.832 0 1.504-.667 1.504-1.491 0-.827-.672-1.494-1.504-1.494-.403 0-.771.158-1.039.416a1.497 1.497 0 00-1.039-.416c-.832 0-1.504.667-1.504 1.494zm17.162 5.782a2.044 2.044 0 01-2.042 2.059H2.108c-1.141 0-2.117-.925-2.117-2.059v-.12h18.64v.12z" fill="#3E7735"/></svg><svg viewBox="0 0 23 23" id="docs-folder" xmlns="http://www.w3.org/2000/svg"><path d="M0 23v-9.524h7.87l.449 1.348h6.362l.449-1.348H23V23H0zm14.869-5.481H8.131v1.348h6.738v-1.348zm6.065-7.964l1.756 2.573h-1.756V9.555zm-7.224 3.921H9.29l-.445-1.348H3.414V9.433h9.744l.902-1.347h5.526v4.042h-5.431l-.445 1.348zm-1.272-5.39H4.762V5.39h7.051l.898-1.347h5.527v2.695h-4.897l-.903 1.348zm-1.346-4.043H6.109V1.347h4.357L11.364 0h5.527v2.695H11.99l-.898 1.348zM2.066 9.555v2.573H.31l1.756-2.573z" fill="#3E7735"/></svg><svg viewBox="0 0 12 23" id="first-place" xmlns="http://www.w3.org/2000/svg"><path d="M0 23v-1.348h1.93l-.696-5.031h9.532l-.696 5.031H12V23H0zm6.662-12.261v1.911a4.58 4.58 0 013.309-1.42h.661v.674a4.74 4.74 0 01-1.394 3.369h-3.9v-4.534C2.73 10.406.706 8.135.706 5.391.706 2.418 3.081 0 6 0c2.919 0 5.294 2.418 5.294 5.391 0 2.744-2.024 5.015-4.632 5.348zm.838-4.27h-.838V2.695H5.338v.045a.847.847 0 01-.838.854v1.347c.297 0 .58-.061.838-.172v1.7H4.5v1.347h3V6.469z" fill="#3E7735"/></svg><svg viewBox="0 0 23 19" id="graduation-cap" xmlns="http://www.w3.org/2000/svg"><path d="M22.615 6.55l-10.181 6.32c-.514.319-1.354.319-1.868 0L.385 6.55c-.513-.318-.513-.84 0-1.159L10.566.239c.514-.319 1.354-.319 1.868 0l10.181 5.152c.513.319.513.841 0 1.159zM3.34 9.85l6.684 4.148c.409.254.933.395 1.476.395.542 0 1.067-.141 1.476-.395l6.857-4.256s.429-.333.429.348v4.376c0 2.182-3.923 4.535-8.762 4.535s-8.763-2.353-8.763-4.535v-4.142c0-.848.603-.474.603-.474zm17.761 6.222c.036-.022.113-.065.113-.155V9.58s-.035-.306.12-.443c.134-.118.515-.333.67-.42.194-.11.19.221.19.221v6.979c0 .09.073.132.109.152.354.209.592.597.592 1.042 0 .666-.533 1.206-1.191 1.206a1.2 1.2 0 01-1.192-1.206c0-.443.237-.83.589-1.039z" fill="#3E7735"/></svg><svg viewBox="0 0 23 23" id="hammer" xmlns="http://www.w3.org/2000/svg"><path d="M22.803 10.713l-5.685 5.684a.669.669 0 01-.947 0l-.953-.953a.674.674 0 010-.953l5.678-5.679a.674.674 0 01.953 0l.954.954a.669.669 0 010 .947zM9.971 8.303l4.771-4.771 4.764 4.765-4.77 4.77-4.765-4.764zM8.548 7.82a.674.674 0 01-.953 0l-.953-.952a.674.674 0 010-.953L12.36.197a.674.674 0 01.953 0l.952.953a.674.674 0 010 .953L8.548 7.82zm2.382 7.147l-7.48 7.441a2.022 2.022 0 01-2.858-2.859l7.479-7.441 2.859 2.859zm-.953-4.765l2.859 2.859-.953.953-2.859-2.859.953-.953zm2.915 11.45h.674V19.63c0-.372.301-.674.674-.674h6.738c.372 0 .673.302.673.674v2.022h.674a.673.673 0 110 1.347h-9.433a.674.674 0 110-1.347z" fill="#3E7735"/></svg><svg viewBox="0 0 18 23" id="hand" xmlns="http://www.w3.org/2000/svg"><path d="M11.32 23.011c-3.71 0-5.693-1.465-6.916-3.341a7496.858 7496.858 0 00-4.096-6.245c-.52-.818-.335-1.864.416-2.343.755-.471 1.786-.195 2.314.622l1.782 2.455V3.095a1.32 1.32 0 011.318-1.327c.725 0 1.318.592 1.318 1.327v6.639a.44.44 0 00.88 0V1.322c0-.73.588-1.326 1.318-1.326.729 0 1.317.596 1.317 1.326v8.412a.44.44 0 00.88 0V2.209c0-.735.593-1.327 1.318-1.327.73 0 1.318.592 1.318 1.327v8.411a.44.44 0 00.88 0V4.862c0-.73.592-1.327 1.318-1.327.729 0 1.323.597 1.323 1.327v11.951c0 1.426-.55 6.198-6.688 6.198z" fill="#3E7735"/></svg><svg viewBox="0 0 23 23" id="hand-with-money" xmlns="http://www.w3.org/2000/svg"><path d="M14.507 22.519l-6.441-1.806-3.325.373V13.62l5.753-.891 6.297 1.575v1.754l-.01.003-4.505-1.097-.324 1.327 4.849 1.181 5.692-1.562.507 1.934-8.493 4.675zm-.715-10.606c-3.289 0-5.964-2.672-5.964-5.956C7.828 2.672 10.503 0 13.792 0c3.288 0 5.963 2.672 5.963 5.957 0 3.284-2.675 5.956-5.963 5.956zm1.347-7.497h1.368c0-.758-.311-1.366-.899-1.758a2.783 2.783 0 00-1.132-.415v-.672h-1.368v.672a2.777 2.777 0 00-1.132.415c-.589.392-.9 1-.9 1.758 0 .759.311 1.367.9 1.759.311.208.691.346 1.132.415v1.69c-.663-.171-.664-.598-.664-.783h-1.368c0 .758.311 1.366.9 1.759.311.207.691.346 1.132.414v.672h1.368V9.67c.441-.068.82-.207 1.132-.414.588-.393.899-1.001.899-1.759 0-.759-.311-1.367-.899-1.759a2.782 2.782 0 00-1.132-.414V3.633c.663.171.663.598.663.783zm-2.695 0c0-.185.001-.612.664-.783V5.2c-.663-.172-.664-.599-.664-.784zm2.695 3.081c0 .185 0 .612-.663.783V6.713c.663.172.663.599.663.784zM0 13.731h3.373V23H0v-9.269z" fill="#3E7735"/></svg><svg viewBox="0 0 23 19" id="house" xmlns="http://www.w3.org/2000/svg"><path d="M22.275 19.001H.726A.73.73 0 010 18.269c0-.404.325-.731.726-.731h21.549c.401 0 .726.327.726.731a.73.73 0 01-.726.732zM20.454 7.883v7.261h.464c.394 0 .713.322.713.719v.468H1.368v-.468c0-.397.32-.719.714-.719h.464V7.883h3.781v7.261h3.282V7.883h3.781v7.261h3.282V7.883h3.782zm1.108-1.207h-.002H1.439a.72.72 0 01-.327-1.358L11.172.079a.708.708 0 01.655 0l10.032 5.224a.72.72 0 01-.297 1.373z" fill="#3E7735"/></svg><svg viewBox="0 0 23 17" id="mail" xmlns="http://www.w3.org/2000/svg"><path d="M15.07 8.5L23 1.201v14.598L15.07 8.5zM1.306 0h20.388L11.5 9.382 1.306 0zM0 15.799V1.201L7.93 8.5 0 15.799zm11.5-4.013l2.264-2.084 7.93 7.299H1.306l7.93-7.299 2.264 2.084z" fill="#3E7735"/></svg><svg viewBox="0 0 23 21" id="monets" xmlns="http://www.w3.org/2000/svg"><path d="M16.318 21c-3.691 0-6.683-1.394-6.683-3.114v-.676c0-.219.049-.432.141-.638.631 1.414 3.32 2.477 6.542 2.477 3.221 0 5.91-1.063 6.541-2.477.092.206.141.419.141.638v.676C23 19.606 20.008 21 16.318 21zm0-3.477c-3.691 0-6.683-1.394-6.683-3.114v-.676c0-.219.049-.432.141-.638.631 1.414 3.32 2.477 6.542 2.477 3.221 0 5.91-1.063 6.541-2.477.092.206.141.419.141.638v.676c0 1.72-2.992 3.114-6.682 3.114zm0-3.665c-3.691 0-6.683-1.394-6.683-3.114v-.676c0-.218.049-.432.141-.638.631 1.414 3.32 2.477 6.542 2.477 3.221 0 5.91-1.063 6.541-2.477.092.206.141.42.141.638v.676c0 1.72-2.992 3.114-6.682 3.114zm0-3.477c-3.691 0-6.683-1.394-6.683-3.114v-.676c0-.219.049-.432.141-.638.631 1.415 3.32 2.477 6.542 2.477 3.221 0 5.91-1.062 6.541-2.477.092.206.141.419.141.638v.676c0 1.72-2.992 3.114-6.682 3.114zm0-3.477c-3.691 0-6.683-1.394-6.683-3.114v-.676C9.635 1.394 12.627 0 16.318 0 20.008 0 23 1.394 23 3.114v.676c0 1.72-2.992 3.114-6.682 3.114zM0 16.018v-.675c0-.219.049-.432.141-.638.631 1.414 3.32 2.477 6.541 2.477.647 0 1.271-.044 1.863-.124V17.886c0 .377.084.742.249 1.088-.664.103-1.374.159-2.112.159-3.69 0-6.682-1.395-6.682-3.115zm0-3.477v-.675c0-.219.049-.432.141-.638.631 1.414 3.32 2.476 6.541 2.476.647 0 1.272-.043 1.863-.123v1.952c-.591.08-1.216.123-1.863.123-3.69 0-6.682-1.395-6.682-3.115zm0-3.477v-.675c0-1.72 2.992-3.115 6.682-3.115.647 0 1.272.043 1.863.123v6.659c-.591.08-1.216.123-1.863.123C2.992 12.179 0 10.784 0 9.064z" fill="#3E7735"/></svg><svg viewBox="0 0 23 23" id="money-automat" xmlns="http://www.w3.org/2000/svg"><path d="M22.281 11.501h-4.074c.41-1.028.687-2.019.856-2.952.606-.168 1.062-.7 1.062-1.361V4.313c0-.794-.644-1.438-1.438-1.438H4.312c-.793 0-1.437.644-1.437 1.438v2.875c0 .793.644 1.437 1.437 1.437h.241c-.236.905-.62 1.874-1.192 2.876H.719A.72.72 0 010 10.782V.719A.72.72 0 01.719 0h21.562A.72.72 0 0123 .719v10.063a.72.72 0 01-.719.719zM6.249 4.313H17.76c.263 2.124.135 5.412-2.051 8.999-3.21 5.269-1.499 8.482-1.425 8.615A.723.723 0 0113.658 23H3.595a.72.72 0 01-.624-.361c-.092-.162-2.236-4.032 1.448-10.076 2.022-3.319 2.084-6.382 1.83-8.25zm3.813 2.156a.719.719 0 10-1.437 0v1.438a.719.719 0 001.437 0V6.469zm0 12.938a.72.72 0 001.438 0V17.97a.72.72 0 00-1.438 0v1.437zm0-3.953c1.189 0 2.157-1.129 2.157-2.516s-.968-2.516-2.157-2.516c-1.188 0-2.156 1.129-2.156 2.516s.968 2.516 2.156 2.516z" fill="#3E7735"/></svg><svg viewBox="0 0 23 23" id="pickaxe" xmlns="http://www.w3.org/2000/svg"><path d="M19.787 6.274a.703.703 0 00-.065.92c3.193 4.24 4.102 9.053 2.515 11.502a.459.459 0 01-.834-.154c-.668-2.757-2.291-6.021-4.98-8.905a75.592 75.592 0 00-3.063-3.062C10.454 3.9 7.199 2.26 4.438 1.595a.46.46 0 01-.351-.478.477.477 0 01.222-.362C6.764-.82 11.571.094 15.804 3.278c.28.211.672.182.92-.065l.561-.561a2.167 2.167 0 013.089.026c.826.854.789 2.221-.051 3.061l-.536.535zm-4.424 4.422L3.688 22.365a2.167 2.167 0 01-3.089-.026c-.826-.854-.789-2.221.051-3.06L12.252 7.683c.715.635 2.188 1.974 3.111 3.013z" fill="#3E7735"/></svg><svg viewBox="0 0 23 23" id="pie-chart" xmlns="http://www.w3.org/2000/svg"><path d="M12.6 20.795V10.397H2.2C2.2 4.657 6.858 0 12.605 0 18.346 0 23 4.657 23 10.397c0 5.741-4.654 10.398-10.4 10.398zM10.4 23C4.658 23 0 18.342 0 12.602h10.4V23zm-1.98-8.419H2.219a8.443 8.443 0 006.201 6.2v-6.2z" fill="#3E7735"/></svg><svg viewBox="0 0 23 23" id="planet" xmlns="http://www.w3.org/2000/svg"><path d="M14.197 22.661l.21-.76 1.972-1.319.518-1.407 1.365-.636 1.289-2.464-1.996-1.175-1.032-1.176-.611-.071-1.222-.328-1.054-.165-.921.257-.566-.631-.564-.165.05-.847-.682.022-.389.446-.222-.939.893-.421.914.421h.493l.18-.728 1.371-1.644 1.908-.964 1.1.143.1-.539-1.365-1.39-.517-1.032h-.755l-.467-.274-1.011-.148-.211 1.201-1.225-.236-.093-.753.94-.212.311-1.346.931.383-.024.571.71.296.476.139.581-.303-.517-.611-1.061-1.032.025-.493 1.082.211.915.821.282.729.215.682 1.456 1.315.376.118.514-.826 1.833-.16.343-.111a11.42 11.42 0 011.947 6.394c0 5.413-3.752 9.943-8.795 11.157zm.657-21.651l-.801.532-.564.625-2.05.189-.847-.139-.578.91-1.69.097-1.061-.307-.94.517-2.043.283-1.636.476h-.003a11.45 11.45 0 0113.753-3.076l-.415.061-1.125-.168zm-5.147.239l-.68.218-.517-.218c-.019.139-.754.611-.754.611l.754.442 1.564-.41-.367-.643zm3.454-.74l-1.175.647-.672.418.468.307 1.04-.107 1.092-.828-.753-.437zM2.237 6.606h1.29l1.918-.343 1.207 1.962v1.835l1.647 2.233h.278v-.789l.636 1.328 1.911.428.862.865.768.232-.768 1.6.836 1.55s.528 1.786.528 1.857c0 .068-.528 2.136-.528 2.136l.121 1.394c-.475.056-.954.099-1.444.099-6.343 0-11.487-5.146-11.487-11.489 0-2.115.582-4.09 1.579-5.79l.825-.189-.829.653.65.428z" fill="#3E7735"/></svg><svg viewBox="0 0 23 23" id="reserch-chart" xmlns="http://www.w3.org/2000/svg"><path d="M5.391 23v-1.348h1.347v-4.133h4.043v4.133h1.348v-6.828h4.043v6.828h1.348V8.086h4.087v13.566H23V23H5.391zm5.274-10.872a6.07 6.07 0 01-6.064-6.064A6.07 6.07 0 0110.665 0a6.071 6.071 0 016.065 6.064 6.071 6.071 0 01-6.065 6.064zm-3.609.404L2.858 16.73 0 13.871l4.197-4.197a7.462 7.462 0 002.859 2.858z" fill="#3E7735"/></svg><svg viewBox="0 0 23 23" id="shout" xmlns="http://www.w3.org/2000/svg"><path d="M22.882 19.776l-.046.067a.695.695 0 01-.3.23c-.005.002-.008.008-.012.009a.757.757 0 01-.243.042.733.733 0 01-.293-.064c-.022-.01-.039-.028-.06-.041a.713.713 0 01-.179-.138c-.007-.009-.017-.012-.023-.019-2.241-2.721-5.366-4.539-8.789-5.206V5.469c3.423-.667 6.548-2.486 8.789-5.207.006-.006.015-.008.02-.013a.726.726 0 01.315-.205c.028-.008.053-.01.081-.015.047-.01.09-.029.139-.029.072 0 .137.021.201.04.015.004.028-.003.042.002.004.001.007.007.012.008a.711.711 0 01.346.298c.069.11.118.233.118.371v18.686c0 .138-.049.26-.118.371zM8.854 14.374l2.412 4.825a1.437 1.437 0 01-.265 1.664l-1.726 1.711a1.394 1.394 0 01-1.298.396 1.43 1.43 0 01-1.058-.894l-2.89-7.702h-.435a.72.72 0 01-.719-.719v-.719H.719A.718.718 0 010 12.218V7.906a.72.72 0 01.719-.719h2.156v-.719c0-.396.322-.718.719-.718h7.161c.25-.012.496-.051.745-.074v8.771c-.246-.023-.49-.061-.738-.073H8.854z" fill="#3E7735"/></svg><svg viewBox="0 0 23 21" id="shuffle" xmlns="http://www.w3.org/2000/svg"><path d="M17.07 6.918a4.413 4.413 0 00-2.978 1.886l-4.449 6.564a7.76 7.76 0 01-6.428 3.41H.045v-4.564h2.726a4.406 4.406 0 003.654-1.942l4.244-6.275a8.538 8.538 0 016.404-3.733L17.074 0l5.898 4.618-5.904 4.65.002-2.35zM6.417 8.806A4.422 4.422 0 002.772 6.89H0V2.234h2.602a8.864 8.864 0 016.821 3.198l-2.64 3.905-.366-.531zm7.679 3.398a4.425 4.425 0 002.987 1.879l-.002-2.351L23 16.382 17.087 21l-.002-2.264a8.586 8.586 0 01-5.977-3.127l2.647-3.904.341.499z" fill="#3E7735"/></svg><svg viewBox="0 0 23 23" id="wallet" xmlns="http://www.w3.org/2000/svg"><path d="M20.978 17.609H14.24a2.021 2.021 0 010-4.043h7.412c.493 0 .95-.142 1.348-.375v2.397a2.021 2.021 0 01-2.022 2.021zm-6.739-2.695a.674.674 0 100 1.349.674.674 0 000-1.349zm7.413-2.695h-4.043V5.48h.674c1.117 0 2.022.905 2.022 2.022v2.021h1.347a1.348 1.348 0 110 2.696zm-10.781 3.369a3.374 3.374 0 003.369 3.369h2.022v2.021A2.024 2.024 0 0114.24 23H3.369A3.373 3.373 0 010 19.631V9.149c.398.232.855.374 1.348.374H14.24c1.115 0 2.022.907 2.022 2.022v.674H14.24a3.373 3.373 0 00-3.369 3.369zm-2.9-11.455h4.363a2.032 2.032 0 001.232 1.232v2.811H6.738V5.365a2.033 2.033 0 001.233-1.232zm2.226 2.696a.674.674 0 100-1.349.674.674 0 000 1.349zm4.717-2.022a.673.673 0 00-.674-.674.674.674 0 01-.674-.674.673.673 0 00-.673-.674H7.412a.674.674 0 00-.674.674.674.674 0 01-.674.674.673.673 0 00-.673.674v3.369H4.043V.674c0-.372.302-.674.674-.674h10.871c.372 0 .674.302.674.674v8.193a3.396 3.396 0 00-1.348-.613V4.807zM0 6.828C0 6.084.603 5.48 1.348 5.48h1.347v2.696H1.348A1.348 1.348 0 010 6.828zm20.305 12.803a2.021 2.021 0 01-2.022 2.021h-.674v-2.695h2.696v.674z" fill="#3E7735"/></svg></svg>