<svg width="244" height="65" viewBox="0 0 244 65" fill="none" xmlns="http://www.w3.org/2000/svg">
<g clip-path="url(#clip0)">
<path d="M40.4808 42.8167H63.0279V47.8048H34.4971V2.00903H39.9808V42.3167V42.8167H40.4808Z" fill="#40C3CD" stroke="#40C3CD"/>
<path d="M33.9971 48.3048V1.50903H40.4808V42.3167H63.5279V48.3048H33.9971Z" fill="#40C3CD" stroke="#40C3CD"/>
<path d="M68.8075 9.22066C67.6436 9.22066 66.8396 8.79488 66.3176 8.16772C65.7848 7.52758 65.5089 6.63161 65.5089 5.64683C65.5089 4.66155 65.7837 3.76564 66.3158 3.12574C66.8369 2.49895 67.6407 2.073 68.8075 2.073C69.9714 2.073 70.7754 2.49878 71.2974 3.12594C71.8302 3.76607 72.1061 4.66205 72.1061 5.64683C72.1061 6.63161 71.8302 7.52758 71.2974 8.16772C70.7754 8.79488 69.9714 9.22066 68.8075 9.22066ZM66.4253 47.8047V16.9849L71.1897 16.2445V47.8047H66.4253Z" fill="#40C3CD" stroke="#40C3CD"/>
<path d="M68.8075 9.72066C66.2076 9.72066 65.0089 7.79039 65.0089 5.64683C65.0089 3.50327 66.2023 1.573 68.8075 1.573C71.4074 1.573 72.6061 3.50327 72.6061 5.64683C72.6061 7.79039 71.4074 9.72066 68.8075 9.72066ZM65.9253 48.3047V16.5566L71.6897 15.6608V48.3047H65.9253Z" fill="#40C3CD" stroke="#40C3CD"/>
<path d="M85.6853 17.1952H95.361L95.1896 21.3035H85.68H85.18V21.8035V47.81H80.4209V21.8675V21.4031L79.9577 21.3688L74.8328 20.99L75.0486 18.2475L79.9901 16.8237L80.3452 16.7214L80.3515 16.3519L80.4208 12.3474L80.4208 12.3466C80.489 7.99734 81.5437 5.1227 83.2683 3.33369C84.9879 1.54984 87.4554 0.76123 90.5387 0.76123C92.6514 0.76123 94.9023 1.43769 96.4298 2.07431C96.3964 2.20589 96.3553 2.36489 96.3083 2.54431C96.1769 3.04585 96.0016 3.70067 95.826 4.34736C95.6504 4.99409 95.475 5.63114 95.3438 6.0972C95.3242 6.16657 95.3057 6.23194 95.2884 6.29284C93.8655 5.71962 92.0115 5.08281 90.4695 5.08281C88.7461 5.08281 87.3751 5.60387 86.4617 6.84791C85.5745 8.05621 85.1853 9.86232 85.1853 12.2801V16.6952V17.1952H85.6853Z" fill="#40C3CD" stroke="#40C3CD"/>
<path d="M95.6053 6.96386C94.1295 6.34532 92.0891 5.58281 90.4695 5.58281C87.2356 5.58281 85.6853 7.51308 85.6853 12.2801V16.6952H95.8823L95.6692 21.8035H85.68V48.31H79.9209V21.8675L74.295 21.4516L74.5773 17.863L79.8516 16.3433L79.9209 12.3388C80.0594 3.50323 84.2096 0.26123 90.5387 0.26123C92.9308 0.26123 95.4614 1.08773 97.0117 1.78092C97.0117 1.92489 95.6053 7.10249 95.6053 6.96386Z" fill="#40C3CD" stroke="#40C3CD"/>
<path d="M101.227 33.4651H101.727L101.227 33.4822C101.337 36.6982 102.487 39.4792 104.44 41.4593C106.395 43.4415 109.128 44.5922 112.345 44.5922C115.537 44.5922 118.992 43.8112 121.634 42.2735L122.476 46.4635C119.724 48.0185 116.078 48.8392 112.206 48.8392C107.474 48.8392 103.527 47.1765 100.763 44.3649C97.999 41.5525 96.3877 37.5587 96.3877 32.8412C96.3877 22.873 103.085 16.1554 111.785 16.1554C115.583 16.1554 118.52 17.3282 120.508 19.361C122.498 21.3955 123.592 24.3475 123.592 28.0102C123.592 29.5499 123.361 31.2547 123.011 32.5515C121.69 32.5598 117.104 32.5892 112.528 32.6185L105.098 32.6661L102.651 32.6819L101.966 32.6863L101.785 32.6874L101.739 32.6877L101.727 32.6878L101.724 32.6878L101.724 32.6878C101.724 32.6878 101.723 32.6878 101.727 33.1878L101.723 32.6878L101.227 32.691V33.1878V33.4651ZM118.539 29.4113L119.035 29.4073V28.9113V28.4261C119.035 26.0078 118.455 23.9224 117.152 22.4363C115.838 20.9388 113.857 20.125 111.22 20.125C105.42 20.125 102.025 24.6599 101.513 28.9858L101.446 29.5492L102.013 29.5446L118.539 29.4113Z" fill="#40C3CD" stroke="#40C3CD"/>
<path d="M101.727 33.4651C101.94 39.6771 106.159 44.0922 112.345 44.0922C115.722 44.0922 119.377 43.1964 121.982 41.4688L123.037 46.7157C120.155 48.4433 116.287 49.3392 112.206 49.3392C102.499 49.3392 95.8877 42.5086 95.8877 32.8412C95.8877 22.6246 102.782 15.6554 111.785 15.6554C119.59 15.6554 124.092 20.4864 124.092 28.0102C124.092 29.7378 123.81 31.6681 123.389 33.0492C123.319 33.0492 101.727 33.1878 101.727 33.1878V33.4651V33.4651ZM118.535 28.9113V28.4261C118.535 23.7337 116.282 20.625 111.22 20.625C105.733 20.625 102.499 24.9068 102.009 29.0447L118.535 28.9113Z" fill="#40C3CD" stroke="#40C3CD"/>
<path d="M126.58 46.2042L127.767 42.0416C130.492 43.682 134.214 44.7309 137.384 44.7309C139.282 44.7309 140.987 44.3021 142.235 43.4634C143.498 42.6143 144.283 41.3458 144.283 39.7465C144.283 37.904 143.156 36.7144 141.65 35.8834C140.168 35.0659 138.214 34.5338 136.34 34.0234L136.317 34.0171L136.317 34.017C134.047 33.4002 131.735 32.5587 129.996 31.1905C128.281 29.8407 127.117 27.9768 127.117 25.2481C127.117 22.4734 128.31 20.2164 130.272 18.6422C132.242 17.061 135.009 16.1554 138.151 16.1554C141.649 16.1554 145.141 16.9605 147.965 18.2709L146.772 22.4556C144.064 21.1326 140.444 20.333 137.874 20.333C136.094 20.333 134.561 20.688 133.456 21.4273C132.328 22.1821 131.679 23.3199 131.679 24.7682C131.679 26.5306 132.704 27.6879 134.158 28.5077C135.587 29.3138 137.516 29.8463 139.506 30.3603C141.847 30.9773 144.209 31.8191 145.98 33.211C147.726 34.5836 148.908 36.497 148.908 39.3305V39.331C148.911 42.178 147.7 44.557 145.65 46.234C143.592 47.9171 140.668 48.9085 137.246 48.9085C133.534 48.9085 129.437 47.8401 126.58 46.2042Z" fill="#40C3CD" stroke="#40C3CD"/>
<path d="M137.246 49.4085C133.309 49.4085 128.945 48.2354 125.994 46.4384L127.469 41.2608C130.144 43.0524 134.081 44.2309 137.384 44.2309C141.044 44.2309 143.783 42.5725 143.783 39.7465C143.783 36.5738 139.984 35.534 136.185 34.4995C131.614 33.2571 126.617 31.0496 126.617 25.2481C126.617 19.3826 131.684 15.6554 138.151 15.6554C141.881 15.6554 145.605 16.5512 148.561 18.0016L147.086 23.1792C144.411 21.7288 140.543 20.833 137.874 20.833C134.427 20.833 132.179 22.2141 132.179 24.7682C132.179 27.8022 135.626 28.842 139.632 29.8765C144.347 31.1189 149.408 33.3264 149.408 39.3305C149.414 45.3346 144.278 49.4085 137.246 49.4085Z" fill="#40C3CD" stroke="#40C3CD"/>
<path d="M154.906 39.4846L154.906 39.4831L155.396 21.812L155.409 21.3304L154.928 21.2992L150.081 20.9848L150.244 18.2424L155.252 16.7532L155.602 16.6491L155.609 16.2841L155.738 9.94336H160.289L160.091 16.6752L160.076 17.1899H160.591H170.128L169.957 21.2982H160.378H159.892L159.878 21.7845L159.388 39.6635L159.388 39.6655C159.352 41.2229 159.7 42.4941 160.526 43.3752C161.356 44.2602 162.584 44.6616 164.107 44.6616C165.976 44.6616 167.825 44.2427 169.6 43.6397C169.616 43.7111 169.634 43.7888 169.652 43.8721C169.753 44.3346 169.883 44.9531 170.01 45.5739C170.137 46.1941 170.263 46.8145 170.356 47.28C170.382 47.4125 170.406 47.5324 170.427 47.6362C168.217 48.4238 165.955 48.8392 163.761 48.8392C160.7 48.8392 158.464 48.1125 157.012 46.6406C155.562 45.1703 154.801 42.8611 154.906 39.4846Z" fill="#40C3CD" stroke="#40C3CD"/>
<path d="M163.761 49.3392C157.501 49.3392 154.193 46.3691 154.406 39.4692L154.896 21.7982L149.552 21.4516L149.765 17.863L155.109 16.274L155.248 9.44336H160.804L160.591 16.6899H170.65L170.436 21.7982H160.378L159.888 39.6772C159.819 42.6472 161.225 44.1616 164.107 44.1616C166.079 44.1616 168.044 43.6763 169.946 42.9885C170.016 42.9885 171.001 47.9581 171.001 47.9581C168.614 48.8593 166.153 49.3392 163.761 49.3392Z" fill="#40C3CD" stroke="#40C3CD"/>
<path d="M188.896 48.4643L188.896 48.4644L201.501 17.1952H196.469L187.517 41.4393L187.055 42.6902L186.581 41.4441L177.348 17.1952H172.244L184.485 47.4292L184.561 47.6162L184.486 47.8034L182.516 52.7008C182.515 52.7013 182.515 52.7018 182.515 52.7024C181.422 55.4694 180.462 57.2546 179.423 58.3466C178.349 59.4771 177.208 59.8478 175.86 59.8478C174.295 59.8478 172.589 59.2505 171.025 58.5254L169.65 62.7978C171.655 63.6558 173.642 64.2333 175.855 64.2333C178.261 64.2333 180.191 63.6551 181.9 62.1475C183.631 60.6206 185.177 58.1031 186.714 54.1291L188.896 48.4643ZM188.896 48.4643L188.893 48.4716L186.715 54.1285L188.896 48.4643Z" fill="#40C3CD" stroke="#40C3CD"/>
<path d="M189.36 48.6513L187.181 54.3088C184.086 62.3125 180.852 64.7333 175.855 64.7333C173.393 64.7333 171.214 64.0455 169.035 63.075L170.724 57.8281C172.413 58.6546 174.24 59.3478 175.86 59.3478C178.321 59.3478 179.872 58.036 182.051 52.5172L184.022 47.6168L171.502 16.6952H177.693L187.048 41.2661L196.121 16.6952H202.242L189.36 48.6513Z" fill="#40C3CD" stroke="#40C3CD"/>
<path d="M204.916 47.8047V2.2145L209.68 1.47408V47.8047H204.916Z" fill="#40C3CD" stroke="#40C3CD"/>
<path d="M204.416 48.3047V1.7862L210.18 0.890381V48.3047H204.416Z" fill="#40C3CD" stroke="#40C3CD"/>
<path d="M219.539 32.9651L219.538 32.6878L219.041 32.691V32.9651H219.018L219.036 33.4822C219.146 36.6982 220.296 39.4793 222.25 41.4594C224.206 43.4416 226.939 44.5922 230.159 44.5922C233.351 44.5922 236.806 43.8112 239.448 42.2735L240.29 46.4635C237.538 48.0185 233.892 48.8392 230.02 48.8392C225.288 48.8392 221.341 47.1765 218.577 44.3649C215.813 41.5525 214.202 37.5587 214.202 32.8412C214.202 22.873 220.899 16.1554 229.599 16.1554C233.397 16.1554 236.334 17.3282 238.322 19.361C240.312 21.3955 241.406 24.3475 241.406 28.0102C241.406 29.5499 241.175 31.2547 240.825 32.5515C239.504 32.5598 234.918 32.5892 230.343 32.6185L222.913 32.6661L220.466 32.6819L219.78 32.6863L219.6 32.6874L219.553 32.6877L219.542 32.6878L219.539 32.6878L219.538 32.6878C219.538 32.6878 219.538 32.6878 219.539 32.9651ZM236.348 29.4113L236.844 29.4073V28.9113V28.4261C236.844 26.0078 236.264 23.9224 234.96 22.4363C233.647 20.9388 231.666 20.125 229.029 20.125C223.229 20.125 219.834 24.66 219.316 28.9852L219.249 29.5492L219.817 29.5446L236.348 29.4113Z" fill="#40C3CD" stroke="#40C3CD"/>
<path d="M219.535 33.4651C219.749 39.6771 223.968 44.0922 230.159 44.0922C233.536 44.0922 237.191 43.1964 239.796 41.4688L240.851 46.7157C237.969 48.4433 234.101 49.3392 230.02 49.3392C220.313 49.3392 213.702 42.5086 213.702 32.8412C213.702 22.6246 220.596 15.6554 229.599 15.6554C237.404 15.6554 241.906 20.4864 241.906 28.0102C241.906 29.7378 241.624 31.6681 241.203 33.0492C241.134 33.0492 219.541 33.1878 219.541 33.1878V33.4651H219.535ZM236.344 28.9113V28.4261C236.344 23.7337 234.09 20.625 229.029 20.625C223.542 20.625 220.308 24.9068 219.813 29.0447L236.344 28.9113Z" fill="#40C3CD" stroke="#40C3CD"/>
<path d="M7.07154 20.5718C9.09602 20.4438 10.5504 18.4976 10.5504 15.8954C10.5504 12.8827 8.72309 11.0271 6.37895 11.0271C6.10724 11.0271 5.59047 11.0271 5.4413 11.0911V20.1665L6.74655 20.6358C6.75188 20.6358 7.14612 20.5718 7.07154 20.5718ZM6.26174 10.4299C8.45671 10.4299 9.86319 8.88886 9.86319 6.35071C9.86319 3.68459 8.48335 2.30354 6.18716 2.30354H5.44662V10.4352H6.26174V10.4299ZM0.241578 20.7318L1.15259 20.6038C1.94108 20.4758 2.23942 20.2892 2.23942 20.0386V2.70879C2.23942 2.45818 2.09025 2.39419 0.955474 2.23956L0.262889 2.14358L0.188303 1.61035H6.82647C11.5147 1.61035 13.1876 3.306 13.1876 5.97212C13.1876 8.29698 11.584 9.86466 8.74972 10.4299V10.5259C12.0049 10.8405 13.9281 12.8827 13.9281 15.7355C13.9281 19.0308 11.7332 21.2277 7.02359 21.2277H0.166992L0.241578 20.7318Z" fill="white"/>
<path d="M17.8866 20.7318L19.0427 20.6038C19.8098 20.5078 20.1028 20.2892 20.1028 20.0386V2.23956H19.5115C17.194 2.36753 15.8354 4.50042 15.1216 6.56933L14.8498 7.69977H14.1839L14.8232 1.61035H28.7815L29.1011 7.66778H28.5098L28.2381 6.56933C27.5242 4.30846 26.1923 2.26622 23.944 2.23956H23.3047V20.1345C23.3047 20.3852 23.4805 20.4811 24.562 20.6038L25.5263 20.7318L25.6009 21.233H17.812L17.8866 20.7318Z" fill="white"/>
</g>
<defs>
<clipPath id="clip0">
<rect width="243" height="65" fill="white" transform="translate(0.166992)"/>
</clipPath>
</defs>
</svg>
