<?xml version="1.0" encoding="utf-8"?>
<svg version="1.1" xmlns="http://www.w3.org/2000/svg" xmlns:xlink="http://www.w3.org/1999/xlink" x="0px" y="0px" viewBox="0 0 328.7 221.1" xml:space="preserve">
  <path fill="#ffffff" d="M201.2,215.8l15.6-1.4c9.4-1.1,12.9-3.5,12.9-6V6.4h-8.8c-30,1.4-44.7,21.9-53.8,44.6l-3.8,14.5h-5.9      L166.5,0h156.6l5.6,65.4h-5.6L319.9,52C309.9,23.4,297,7.4,267,6.4h-9.4v203c0,2.8,2.1,3.9,15,5.3l13.5,1.1l0.9,5.3h-86.7      L201.2,215.8z"/>
  <path fill="#ffffff" d="M0.9,215.8l11.2-1.4c9.4-1.1,12.9-3.5,12.9-6V11.7c0-2.8-1.8-3.9-15-5.3L1.2,5.3L0.3,0h72.6      c53.8,0,69.6,23.7,69.6,47.8c0,25.1-16.8,45.6-54.1,52.4v1.1c42.3,3.2,63.5,29.4,63.5,59.4c0,36.1-27.6,60.5-78.8,60.5      c-0.6,0-73.2,0-73.2,0L0.9,215.8z M67.9,98.3c30-0.7,43.5-21.2,43.5-45.3c0-29.7-14.1-46-45.6-46c0.3,0-12.9,0-12.9,0v91.2H67.9      z M77,214c27.3-1.1,44.4-24,44.4-51.3c0-34.3-21.2-57.6-51.7-57.6c-5,0-13.5,0.4-16.8,1.1v102.2l18.2,6.4      C71.1,214.7,79,214,77,214z"/>
</svg>
