<svg xmlns="http://www.w3.org/2000/svg" viewBox="0 0 51 51" fill="none">
  <circle cx="25.5" cy="25.5" r="25.5" fill="#30B2EA"/>
  <circle cx="25.5" cy="25.5" r="25.5" fill="url(#paint0_linear)"/>
  <path d="M35.1847 14.0422L9.37867 24.1703C8.88772 24.363 8.86989 25.051 9.35015 25.2688L15.0551 27.8567C15.2097 27.9269 15.327 28.0594 15.3778 28.2212L17.8255 36.0078C17.9491 36.4009 18.4247 36.5534 18.7539 36.3054L23.0143 33.0968C23.2178 32.9435 23.4961 32.9364 23.7072 33.0787L30.8526 37.8975C31.2091 38.1378 31.6951 37.9339 31.7732 37.5114L35.9896 14.7059C36.0747 14.2456 35.6206 13.8712 35.1847 14.0422Z" fill="#FDFEFF"/>
  <path d="M15.3125 27.9998L30.4162 18.627L19.3691 29.3628L19.548 33.3966L18.9531 36.1248C18.3783 36.7236 17.9297 36.2772 17.8477 36.0662L15.3681 28.178L15.2734 28.0233L15.3125 27.9998Z" fill="#C8DAEA"/>
  <path d="M18.3594 36.4259L19.3511 29.3447L23.519 32.9856C23.303 32.9612 23.1588 32.9863 23.0268 33.0859L19.0712 36.0718C18.6289 36.4572 18.4297 36.4455 18.3594 36.4259Z" fill="#A9C9DD"/>
  <defs>
    <linearGradient id="paint0_linear" x1="33" y1="7.5" x2="19" y2="36.5" gradientUnits="userSpaceOnUse">
      <stop stop-color="#1E96C8"/>
      <stop offset="1" stop-color="#37AEE2" stop-opacity="0"/>
    </linearGradient>
  </defs>
</svg>