<svg xmlns="http://www.w3.org/2000/svg" viewBox="0 0 52 11"><path fill="#fff" d="M8.8.8v2.4H4.2v1.5h3.6v2.4H4.2v4H.9V.9h7.9zm4.5 0l1.8 6.3L16.9.8h4V11h-3V7.9c0-1.1.1-2.2.2-3.4L16.3 11H14l-1.9-6.5c.1.9.2 2.3.2 3.1V11h-3V.8h4z"/><path fill="#79A8E0" d="M24.5 8.2c.1.6.6.8 1.2.8 1.1 0 1.5-1 1.5-2.3-.8.6-1.4.7-2.3.7-2.3 0-3.4-1.8-3.4-3.2 0-2.4 1.7-3.5 4-3.5 2.9 0 4.7 1.6 4.7 5.2 0 3.1-1.6 5.1-4.3 5.1-1.9 0-3.6-.6-4.1-2.6l2.7-.2zM27 4.1c0-.7-.6-1.3-1.3-1.3-.9 0-1.3.5-1.3 1.4 0 .8.5 1.3 1.2 1.3 1 0 1.5-.7 1.4-1.4zm6.2 3.2c0 .9.5 1.5 1.4 1.5.9 0 1.3-.6 1.3-1.2 0-1-1.1-1.1-1.8-1.1V4.8c.8 0 1.8-.1 1.7-1 0-.6-.6-.9-1.2-.9-.7 0-1.2.4-1.3 1.1h-2.7c.1-2.3 1.9-3.3 4-3.3 2.4 0 3.8 1.1 3.8 2.8 0 .9-.3 1.6-1.2 2 .9.4 1.4 1.1 1.4 2.1 0 2.3-1.7 3.5-4.4 3.5-2.3 0-4-1.2-4-3.7h3zm6.2.6h3v2.9h-3V7.9zm8.9-4.4c-.2-.6-.6-.8-1.2-.8-1.1 0-1.5 1-1.5 2.3.8-.6 1.4-.7 2.4-.7 2.3 0 3.4 1.8 3.4 3.2 0 2.4-1.7 3.5-4 3.5-2.9 0-4.7-1.6-4.7-5.2 0-3.1 1.6-5.1 4.3-5.1 1.9 0 3.6.6 4.1 2.6l-2.8.2zm-2.5 4.1c0 .7.6 1.3 1.3 1.3.9 0 1.3-.5 1.3-1.4 0-.8-.5-1.3-1.2-1.3-1.1 0-1.4.6-1.4 1.4z"/></svg>